<svg width="338" height="113" viewBox="0 0 338 113" fill="none" xmlns="http://www.w3.org/2000/svg">
<path d="M118.24 99.4899C116.61 88.3599 111.82 77.9599 104.53 69.4699C104.56 68.7999 104.58 68.13 104.58 67.45C104.58 50.21 94.8597 35.2 80.6097 27.59C76.8797 17.9 70.6197 9.25994 62.2397 2.55994L59.4998 0.419922L56.7197 2.48993L56.5897 2.58997C48.2297 9.28997 41.9798 17.9199 38.2598 27.5999C24.0098 35.1999 14.2898 50.21 14.2898 67.46C14.2898 68.14 14.3097 68.8099 14.3397 69.4799C7.04972 77.9699 2.25976 88.3699 0.629761 99.4999L0.259766 103.1L3.42981 104.35C10.3398 107.06 17.6398 108.44 25.1298 108.44C29.4698 108.44 33.6998 107.96 37.7798 107.07C44.2098 110.6 51.5898 112.61 59.4298 112.61C67.2698 112.61 74.6497 110.6 81.0797 107.07C85.1597 107.96 89.3897 108.44 93.7297 108.44C101.22 108.44 108.52 107.07 115.43 104.35L118.76 103.04L118.24 99.4999V99.4899ZM79.6298 97.4C74.9798 96.05 70.6097 94.0399 66.6198 91.4899C74.3698 83.9299 80.0598 74.27 82.7798 63.45C86.2598 65.27 89.5398 67.4999 92.5398 70.1199C93.4598 70.9199 94.3397 71.7599 95.1897 72.6199C93.7097 82.9099 87.8798 91.8199 79.6198 97.4099L79.6298 97.4ZM23.6598 72.6099C24.5098 71.7499 25.3998 70.9199 26.3098 70.1199C29.3098 67.4999 32.5897 65.27 36.0697 63.45C38.7897 74.27 44.4797 83.9299 52.2297 91.4899C48.2397 94.0399 43.8697 96.04 39.2197 97.4C30.9597 91.81 25.1298 82.8999 23.6498 72.6099H23.6598ZM75.5697 48.9799C75.5697 49.6399 75.5598 50.2899 75.5298 50.9399C70.3298 49.4799 64.9198 48.7199 59.4298 48.7199C53.9398 48.7199 48.5297 49.4799 43.3297 50.9399C43.3097 50.2899 43.2898 49.6299 43.2898 48.9799C43.2898 43.8499 44.0598 38.84 45.5298 34.08C49.8098 32.29 54.5098 31.2999 59.4298 31.2999C64.3498 31.2999 69.0497 32.29 73.3297 34.08C74.7997 38.84 75.5697 43.8499 75.5697 48.9799ZM44.4998 59.9799C49.2998 58.4899 54.3298 57.7199 59.4298 57.7199C64.5298 57.7199 69.5597 58.4899 74.3597 59.9799C72.0997 70.1099 66.7798 79.0999 59.4298 85.9199C52.0798 79.0899 46.7598 70.0999 44.4998 59.9799ZM94.8998 60.4699C91.5898 58.0099 88.0497 55.8999 84.3397 54.1899C84.4897 52.4699 84.5697 50.7299 84.5697 48.9799C84.5697 46.2799 84.3898 43.6199 84.0298 40.9899C89.4998 46.0899 93.3998 52.8499 94.8998 60.4699ZM59.4298 11.9999C63.0198 15.3199 66.0598 19.1 68.5098 23.21C65.5798 22.61 62.5398 22.2899 59.4298 22.2899C56.3198 22.2899 53.2797 22.61 50.3497 23.21C52.7997 19.1 55.8398 15.3199 59.4298 11.9999ZM34.8297 40.9899C34.4797 43.6199 34.2898 46.2799 34.2898 48.9799C34.2898 50.7399 34.3698 52.4699 34.5198 54.1899C30.8098 55.8999 27.2697 58.0099 23.9597 60.4699C25.4597 52.8499 29.3497 46.0899 34.8197 40.9899H34.8297ZM10.1997 97.1699C11.4297 91.6399 13.5997 86.38 16.5697 81.59C18.8097 88.35 22.5898 94.4199 27.5198 99.3499C26.7298 99.3899 25.9298 99.4099 25.1298 99.4099C20.0198 99.4099 15.0097 98.6599 10.1897 97.1599L10.1997 97.1699ZM59.4298 103.59C56.4698 103.59 53.5897 103.22 50.8397 102.55C53.8497 101.1 56.7298 99.4099 59.4298 97.4899C62.1298 99.4099 65.0098 101.1 68.0198 102.55C65.2598 103.22 62.3898 103.59 59.4298 103.59ZM93.7297 99.4099C92.9297 99.4099 92.1297 99.3799 91.3397 99.3499C96.2697 94.4199 100.05 88.3599 102.29 81.5999C105.26 86.3799 107.43 91.6399 108.66 97.1699C103.85 98.6599 98.8397 99.4099 93.7297 99.4099Z" fill="white"/>
<path d="M172.48 52.0101C175.43 54.6301 176.9 58.5801 176.9 63.8601V84.1201H167.26V79.7001C165.32 83.0001 161.72 84.6501 156.44 84.6501C153.71 84.6501 151.35 84.1901 149.34 83.2601C147.34 82.3401 145.81 81.0601 144.75 79.4301C143.69 77.8001 143.17 75.9601 143.17 73.8901C143.17 70.5901 144.41 67.9901 146.9 66.1001C149.38 64.2101 153.22 63.2601 158.42 63.2601H166.6C166.6 61.0201 165.92 59.2901 164.55 58.0801C163.19 56.8701 161.14 56.2601 158.41 56.2601C156.52 56.2601 154.66 56.5601 152.83 57.1501C151 57.7401 149.45 58.5501 148.18 59.5601L144.48 52.3701C146.42 51.0101 148.74 49.9501 151.44 49.2001C154.15 48.4501 156.93 48.0801 159.79 48.0801C165.29 48.0801 169.51 49.3901 172.46 52.0101H172.48ZM163.7 76.4901C165.06 75.6801 166.03 74.4801 166.6 72.8901V69.2601H159.54C155.32 69.2601 153.2 70.6501 153.2 73.4201C153.2 74.7401 153.72 75.7901 154.75 76.5501C155.78 77.3201 157.2 77.7101 159.01 77.7101C160.82 77.7101 162.33 77.3001 163.7 76.4901ZM222.77 35.1401V84.1101H212.94V80.0201C210.39 83.1001 206.69 84.6401 201.85 84.6401C198.51 84.6401 195.48 83.8901 192.78 82.4001C190.07 80.9001 187.95 78.7701 186.41 76.0001C184.87 73.2301 184.1 70.0201 184.1 66.3601C184.1 62.7001 184.87 59.5001 186.41 56.7201C187.95 53.9501 190.07 51.8101 192.78 50.3201C195.49 48.8201 198.51 48.0801 201.85 48.0801C206.38 48.0801 209.92 49.5101 212.48 52.3701V35.1401H222.78H222.77ZM210.09 73.5201C211.81 71.7401 212.66 69.3501 212.66 66.3601C212.66 63.3701 211.8 60.9801 210.09 59.2001C208.37 57.4201 206.22 56.5302 203.62 56.5302C201.02 56.5302 198.8 57.4201 197.09 59.2001C195.37 60.9801 194.52 63.3701 194.52 66.3601C194.52 69.3501 195.38 71.7401 197.09 73.5201C198.81 75.3001 200.98 76.1901 203.62 76.1901C206.26 76.1901 208.37 75.3001 210.09 73.5201ZM272.4 81.0201H264.88V90.7201H254.45V81.0201H229.57V73.8301L251.35 44.5302H262.57L242.37 72.3201H254.78V63.6701H264.88V72.3201H272.4V81.0302V81.0201ZM333.81 52.0101C336.43 54.6301 337.74 58.5601 337.74 63.7901V84.1201H327.44V65.3801C327.44 62.5701 326.86 60.4601 325.69 59.0801C324.52 57.6901 322.86 57.0001 320.71 57.0001C318.29 57.0001 316.38 57.7801 314.97 59.3401C313.56 60.9001 312.86 63.2201 312.86 66.3001V84.1201H302.56V65.3801C302.56 59.7901 300.32 57.0001 295.83 57.0001C293.45 57.0001 291.56 57.7801 290.15 59.3401C288.74 60.9001 288.04 63.2201 288.04 66.3001V84.1201H277.74V48.6101H287.57V52.7001C288.89 51.2001 290.51 50.0601 292.42 49.2701C294.33 48.4801 296.43 48.0801 298.72 48.0801C301.23 48.0801 303.49 48.5801 305.52 49.5701C307.54 50.5601 309.17 52.0001 310.4 53.8901C311.85 52.0401 313.69 50.6101 315.91 49.6001C318.13 48.5901 320.56 48.0801 323.2 48.0801C327.64 48.0801 331.17 49.3901 333.79 52.0101H333.81Z" fill="white"/>
</svg>
