<svg width="913" height="278" viewBox="0 0 913 278" fill="none" xmlns="http://www.w3.org/2000/svg">
<path d="M283.75 123.771C283.75 83.4181 252.369 50.2706 212.725 47.4191C201.236 19.613 173.833 -6.10352e-05 141.937 -6.10352e-05C110.042 -6.10352e-05 82.6392 19.613 71.1495 47.4051C31.4505 50.201 0 83.3624 0 123.771C0 148.851 12.1156 171.148 30.8106 185.128C40.5754 238.375 86.8261 277.49 141.937 277.49C197.049 277.49 243.327 238.278 253.078 185.03C271.69 171.051 283.763 148.795 283.763 123.771H283.75ZM195.964 76.5743C195.964 102.433 177.714 124.091 153.427 129.377C153.232 127.54 153.135 125.663 153.135 123.771C153.135 97.9123 171.385 76.2544 195.672 70.9686C195.866 72.8047 195.964 74.6826 195.964 76.5743ZM141.854 237.123C132.924 227.261 127.93 214.464 127.93 200.902C127.93 187.339 133.202 174.32 141.854 164.736C150.506 174.32 155.778 187.006 155.778 200.902C155.778 214.798 150.784 227.275 141.854 237.123ZM88.1753 70.9965C112.406 76.324 130.601 97.954 130.601 123.771C130.601 125.649 130.503 127.513 130.309 129.349C106.078 124.021 87.8833 102.391 87.8833 76.5743C87.8833 74.6965 87.9806 72.8326 88.1753 70.9965ZM101.751 146.875C109.318 146.875 116.524 148.447 123.062 151.257C113.645 167.142 96.3266 177.811 76.5605 177.811C68.9796 177.811 61.7603 176.239 55.2087 173.402C64.7926 157.197 82.3888 146.861 101.751 146.861V146.875ZM160.674 151.257C167.212 148.447 174.417 146.875 181.97 146.875C201.333 146.875 218.915 157.21 228.513 173.416C221.961 176.239 214.756 177.811 207.175 177.811C187.409 177.811 170.091 167.142 160.674 151.257ZM141.923 22.5341C161.843 22.5341 179.272 33.3839 188.647 49.4777C168.937 54.3879 152.217 66.9626 141.868 83.8354C131.533 66.9904 114.855 54.4297 95.186 49.4916C104.547 33.3839 121.99 22.5202 141.923 22.5202V22.5341ZM65.5855 70.8573C65.4464 72.7491 65.3491 74.6547 65.3491 76.5743C65.3491 95.6171 72.3458 113.032 83.891 126.442C64.3893 131.115 47.4469 143.314 36.8058 160.326C27.9452 150.701 22.5202 137.862 22.5202 123.771C22.5202 97.7315 41.0344 75.9345 65.5855 70.8573ZM57.796 198.008C63.8051 199.525 70.0785 200.345 76.5605 200.345C86.8678 200.345 96.7022 198.287 105.688 194.573C105.521 196.659 105.41 198.773 105.41 200.902C105.41 220.779 112.991 239.46 126.47 253.62C95.1999 248.279 69.2995 227.039 57.8098 198.008H57.796ZM157.266 253.634C170.759 239.502 178.312 220.862 178.312 200.902C178.312 198.759 178.201 196.659 178.034 194.559C187.02 198.273 196.854 200.331 207.175 200.331C213.685 200.331 220 199.511 226.037 197.981C214.506 227.025 188.522 248.307 157.28 253.634H157.266ZM246.916 160.34C236.303 143.356 219.388 131.171 199.928 126.469C211.487 113.06 218.484 95.6171 218.484 76.5743C218.484 74.6547 218.387 72.763 218.247 70.8852C242.743 76.018 261.201 97.7732 261.201 123.771C261.201 137.862 255.777 150.701 246.902 160.34H246.916Z" fill="#A5AEFC"/>
<path d="M369.56 201.555C362.007 197.647 356.123 192.222 351.88 185.281C347.638 178.34 345.524 170.467 345.524 161.648C345.524 152.829 347.638 144.956 351.88 138.015C356.123 131.074 362.021 125.649 369.56 121.74C377.099 117.831 385.612 115.87 395.085 115.87C404.558 115.87 412.625 117.831 419.622 121.74C426.619 125.649 431.71 131.241 434.909 138.515L414.92 149.254C410.288 141.103 403.626 137.027 394.918 137.027C388.199 137.027 382.635 139.239 378.226 143.634C373.817 148.044 371.619 154.039 371.619 161.648C371.619 169.257 373.817 175.252 378.226 179.661C382.635 184.071 388.199 186.268 394.918 186.268C403.737 186.268 410.4 182.193 414.92 174.042L434.909 184.947C431.71 191.999 426.619 197.508 419.622 201.472C412.625 205.436 404.446 207.425 395.085 207.425C385.723 207.425 377.099 205.478 369.56 201.555Z" fill="#A5AEFC"/>
<path d="M465.734 201.555C458.292 197.647 452.491 192.222 448.304 185.281C444.118 178.34 442.017 170.467 442.017 161.648C442.017 152.829 444.104 144.956 448.304 138.015C452.491 131.074 458.306 125.649 465.734 121.74C473.175 117.831 481.563 115.87 490.939 115.87C500.314 115.87 508.674 117.831 516.06 121.74C523.446 125.649 529.219 131.074 533.406 138.015C537.592 144.956 539.679 152.829 539.679 161.648C539.679 170.467 537.579 178.34 533.406 185.281C529.219 192.222 523.432 197.647 516.06 201.555C508.674 205.464 500.3 207.425 490.939 207.425C481.577 207.425 473.175 205.478 465.734 201.555ZM507.213 179.578C511.456 175.113 513.57 169.145 513.57 161.648C513.57 154.15 511.442 148.183 507.213 143.718C502.971 139.253 497.546 137.027 490.939 137.027C484.331 137.027 478.879 139.253 474.58 143.718C470.282 148.183 468.14 154.164 468.14 161.648C468.14 169.131 470.282 175.113 474.58 179.578C478.879 184.043 484.331 186.268 490.939 186.268C497.546 186.268 502.971 184.043 507.213 179.578Z" fill="#A5AEFC"/>
<path d="M622.972 125.704C630.358 132.256 634.044 142.146 634.044 155.36V206.09H609.91V195.018C605.056 203.28 596.028 207.411 582.814 207.411C575.984 207.411 570.058 206.257 565.051 203.948C560.043 201.639 556.204 198.44 553.561 194.364C550.918 190.288 549.597 185.656 549.597 180.482C549.597 172.219 552.713 165.723 558.93 160.98C565.148 156.251 574.76 153.872 587.766 153.872H608.255C608.255 148.252 606.544 143.926 603.136 140.894C599.714 137.862 594.596 136.345 587.766 136.345C583.022 136.345 578.377 137.083 573.8 138.571C569.224 140.059 565.343 142.076 562.157 144.608L552.907 126.595C557.748 123.187 563.562 120.53 570.337 118.666C577.111 116.788 584.08 115.856 591.243 115.856C605.014 115.856 615.586 119.139 622.972 125.69V125.704ZM600.994 187.006C604.402 184.975 606.836 181.97 608.269 177.992V168.909H590.59C580.018 168.909 574.718 172.372 574.718 179.313C574.718 182.624 576.012 185.239 578.599 187.159C581.186 189.092 584.733 190.052 589.254 190.052C593.775 190.052 597.572 189.036 600.994 186.992V187.006Z" fill="#A5AEFC"/>
<path d="M665.606 204.699C658.554 202.877 652.934 200.596 648.747 197.842L657.344 179.327C661.308 181.859 666.107 183.931 671.726 185.517C677.346 187.117 682.854 187.91 688.251 187.91C699.157 187.91 704.61 185.211 704.61 179.814C704.61 177.283 703.121 175.46 700.144 174.361C697.168 173.263 692.591 172.331 686.429 171.552C679.154 170.453 673.159 169.187 668.416 167.754C663.672 166.322 659.569 163.79 656.105 160.159C652.628 156.529 650.903 151.34 650.903 144.622C650.903 139.002 652.531 134.023 655.772 129.669C659.027 125.315 663.756 121.935 669.988 119.501C676.205 117.08 683.564 115.87 692.049 115.87C698.336 115.87 704.582 116.566 710.799 117.943C717.017 119.32 722.178 121.225 726.253 123.646L717.657 141.993C709.84 137.583 701.299 135.386 692.049 135.386C686.54 135.386 682.409 136.151 679.655 137.695C676.901 139.239 675.524 141.228 675.524 143.648C675.524 146.402 677.012 148.336 679.989 149.435C682.966 150.534 687.695 151.577 694.205 152.578C701.48 153.789 707.419 155.082 712.051 156.459C716.683 157.836 720.703 160.34 724.111 163.985C727.519 167.615 729.23 172.692 729.23 179.188C729.23 184.697 727.575 189.607 724.278 193.891C720.968 198.189 716.155 201.528 709.812 203.892C703.469 206.257 695.958 207.439 687.25 207.439C679.864 207.439 672.658 206.535 665.606 204.713V204.699Z" fill="#A5AEFC"/>
<path d="M831.677 117.191L791.519 211.543C787.443 221.794 782.408 229 776.399 233.187C770.39 237.374 763.143 239.474 754.672 239.474C750.04 239.474 745.477 238.751 740.956 237.318C736.436 235.885 732.749 233.896 729.884 231.364L739.301 213.017C741.29 214.784 743.571 216.161 746.159 217.148C748.746 218.136 751.305 218.637 753.837 218.637C757.356 218.637 760.222 217.788 762.433 216.077C764.631 214.367 766.62 211.529 768.387 207.565L768.721 206.744L730.218 117.177H756.828L781.782 177.491L806.903 117.177H831.691L831.677 117.191Z" fill="#A5AEFC"/>
<path d="M849.19 204.699C842.137 202.877 836.518 200.596 832.331 197.842L840.927 179.327C844.892 181.859 849.69 183.931 855.31 185.517C860.93 187.117 866.438 187.91 871.835 187.91C882.741 187.91 888.193 185.211 888.193 179.814C888.193 177.283 886.705 175.46 883.728 174.361C880.752 173.263 876.175 172.331 870.013 171.552C862.738 170.453 856.743 169.187 852 167.754C847.256 166.322 843.153 163.79 839.689 160.159C836.226 156.529 834.487 151.34 834.487 144.622C834.487 139.002 836.114 134.023 839.355 129.669C842.61 125.315 847.34 121.935 853.571 119.501C859.789 117.08 867.147 115.87 875.633 115.87C881.906 115.87 888.165 116.566 894.383 117.943C900.601 119.32 905.762 121.225 909.837 123.646L901.241 141.993C893.423 137.583 884.883 135.386 875.633 135.386C870.124 135.386 865.993 136.151 863.239 137.695C860.485 139.239 859.108 141.228 859.108 143.648C859.108 146.402 860.596 148.336 863.573 149.435C866.549 150.534 871.279 151.577 877.789 152.578C885.064 153.789 891.003 155.082 895.635 156.459C900.267 157.836 904.287 160.34 907.695 163.985C911.103 167.615 912.814 172.692 912.814 179.188C912.814 184.697 911.159 189.607 907.862 193.891C904.551 198.189 899.739 201.528 893.41 203.892C887.067 206.257 879.555 207.439 870.848 207.439C863.461 207.439 856.242 206.535 849.204 204.713L849.19 204.699Z" fill="#A5AEFC"/>
</svg>
