<svg width="150" height="46" viewBox="0 0 150 46" fill="none" xmlns="http://www.w3.org/2000/svg">
<g clip-path="url(#clip0_574_531)">
<path d="M46.0706 20.0942C46.0706 13.5411 40.9729 8.16287 34.5377 7.69944C32.6759 3.1871 28.2245 0 23.0455 0C17.8664 0 13.4191 3.18303 11.5532 7.69537C5.10586 8.15067 0 13.537 0 20.0942C0 24.1675 1.96754 27.7855 5.00016 30.0579C6.58558 38.7045 14.094 45.0543 23.0455 45.0543C31.997 45.0543 39.5094 38.6883 41.0908 30.0416C44.1112 27.7733 46.0706 24.1593 46.0706 20.0942ZM31.8181 12.4313C31.8181 16.6306 28.8546 20.147 24.9114 21.0047C24.8789 20.7039 24.8626 20.4031 24.8626 20.0942C24.8626 15.8948 27.8261 12.3785 31.7693 11.5207C31.8018 11.8215 31.8181 12.1223 31.8181 12.4313ZM23.0333 38.4972C21.582 36.8955 20.773 34.8182 20.773 32.6189C20.773 30.4197 21.6308 28.3017 23.0333 26.7448C24.4398 28.3017 25.2935 30.3628 25.2935 32.6189C25.2935 34.8751 24.4845 36.8996 23.0333 38.4972ZM14.3175 11.5288C18.2526 12.3947 21.2039 15.907 21.2039 20.0982C21.2039 20.4031 21.1877 20.7039 21.1592 21.0047C17.2241 20.1389 14.2728 16.6266 14.2728 12.4354C14.2728 12.1305 14.2891 11.8297 14.3175 11.5288ZM16.5209 23.8463C17.7485 23.8463 18.9193 24.1024 19.9803 24.5577C18.4518 27.135 15.6387 28.8668 12.4313 28.8668C11.1996 28.8668 10.0288 28.6107 8.96371 28.1513C10.5207 25.5212 13.3785 23.8422 16.5209 23.8422V23.8463ZM26.0862 24.5577C27.1472 24.1024 28.318 23.8463 29.5457 23.8463C32.6881 23.8463 35.5459 25.5252 37.1028 28.1554C36.0378 28.6148 34.867 28.8709 33.6393 28.8709C30.4319 28.8709 27.6188 27.1391 26.0903 24.5577H26.0862ZM23.0414 3.65866C26.2773 3.65866 29.1066 5.41888 30.627 8.03278C27.4277 8.82956 24.7122 10.8703 23.0292 13.6102C21.3503 10.8743 18.6429 8.83769 15.4517 8.03685C16.9721 5.42294 19.8015 3.65866 23.0414 3.65866ZM10.6467 11.5044C10.6223 11.8134 10.6101 12.1223 10.6101 12.4354C10.6101 15.5249 11.7484 18.3543 13.6183 20.5332C10.4516 21.2934 7.69944 23.2731 5.97174 26.0334C4.53267 24.4683 3.65053 22.3869 3.65053 20.0982C3.65053 15.8704 6.65469 12.3297 10.6426 11.5044H10.6467ZM9.38242 32.1515C10.3581 32.3994 11.3784 32.5295 12.4272 32.5295C14.1021 32.5295 15.6956 32.1962 17.155 31.5945C17.1266 31.936 17.1103 32.2775 17.1103 32.623C17.1103 35.8508 18.3421 38.8834 20.5291 41.1802C15.4517 40.3143 11.2483 36.863 9.38242 32.1515ZM25.5334 41.1843C27.7245 38.8915 28.9522 35.863 28.9522 32.623C28.9522 32.2775 28.9359 31.9319 28.9074 31.5945C30.3668 32.1962 31.9645 32.5336 33.6393 32.5336C34.6963 32.5336 35.7207 32.3994 36.7004 32.1515C34.8304 36.8671 30.6108 40.3225 25.5374 41.1883L25.5334 41.1843ZM40.0867 26.0374C38.363 23.2812 35.619 21.3015 32.4604 20.5373C34.3344 18.3583 35.4727 15.529 35.4727 12.4354C35.4727 12.1223 35.4564 11.8175 35.4361 11.5126C39.4118 12.3459 42.4079 15.8786 42.4079 20.0982C42.4079 22.3869 41.5257 24.4723 40.0867 26.0334V26.0374Z" fill="#F8F8F8"/>
<path d="M60.7271 33.1202C59.4887 32.4784 58.5177 31.5856 57.8224 30.4459C57.1271 29.3063 56.7773 28.0102 56.7773 26.562C56.7773 25.1138 57.1271 23.8177 57.8224 22.6781C58.5177 21.5384 59.4887 20.6456 60.7271 20.0038C61.9655 19.3619 63.3644 19.041 64.9237 19.041C66.483 19.041 67.8078 19.3619 68.9557 20.0038C70.1036 20.6456 70.943 21.5672 71.4655 22.7604L68.1781 24.5254C67.417 23.1841 66.3226 22.5176 64.8908 22.5176C63.7882 22.5176 62.8707 22.8797 62.1465 23.6038C61.4224 24.3279 61.0604 25.3154 61.0604 26.562C61.0604 27.8086 61.4224 28.7961 62.1465 29.5202C62.8707 30.2443 63.784 30.6064 64.8908 30.6064C66.339 30.6064 67.4334 29.9357 68.1781 28.5986L71.4655 30.3924C70.9388 31.5527 70.1036 32.4578 68.9557 33.1079C67.8078 33.758 66.4625 34.0871 64.9237 34.0871C63.3849 34.0871 61.9696 33.7662 60.7271 33.1243V33.1202Z" fill="#F8F8F8"/>
<path d="M76.5343 33.1202C75.3124 32.4784 74.3578 31.5856 73.6708 30.4459C72.9837 29.3063 72.6381 28.0102 72.6381 26.562C72.6381 25.1138 72.9795 23.8177 73.6708 22.6781C74.3578 21.5384 75.3124 20.6456 76.5343 20.0038C77.7563 19.3619 79.1346 19.041 80.6733 19.041C82.2121 19.041 83.5863 19.3619 84.8 20.0038C86.0137 20.6456 86.9641 21.5384 87.6512 22.6781C88.3383 23.8177 88.6839 25.1138 88.6839 26.562C88.6839 28.0102 88.3383 29.3063 87.6512 30.4459C86.9641 31.5856 86.0137 32.4784 84.8 33.1202C83.5863 33.7621 82.2121 34.083 80.6733 34.083C79.1346 34.083 77.7563 33.7621 76.5343 33.1202ZM83.3518 29.5079C84.0471 28.7755 84.3968 27.7922 84.3968 26.562C84.3968 25.3318 84.0471 24.3485 83.3518 23.6161C82.6564 22.8838 81.7636 22.5176 80.6774 22.5176C79.5913 22.5176 78.6943 22.8838 77.9908 23.6161C77.2831 24.3485 76.9334 25.3318 76.9334 26.562C76.9334 27.7922 77.2872 28.7755 77.9908 29.5079C78.6985 30.2402 79.5913 30.6064 80.6774 30.6064C81.7636 30.6064 82.6564 30.2402 83.3518 29.5079Z" fill="#F8F8F8"/>
<path d="M102.372 20.6538C103.586 21.7318 104.191 23.3569 104.191 25.5293V33.8649H100.225V32.0464C99.4264 33.4041 97.9453 34.083 95.7729 34.083C94.6497 34.083 93.6787 33.8937 92.8517 33.5111C92.0289 33.1326 91.3994 32.6059 90.9633 31.9353C90.5271 31.2647 90.3132 30.5035 90.3132 29.656C90.3132 28.2982 90.8234 27.2285 91.8478 26.4509C92.8682 25.6733 94.4481 25.2824 96.5875 25.2824H99.9531C99.9531 24.3608 99.6733 23.6491 99.1096 23.1512C98.5501 22.6534 97.7066 22.4065 96.5834 22.4065C95.8058 22.4065 95.0406 22.53 94.2876 22.7727C93.5347 23.0155 92.897 23.3487 92.3745 23.7643L90.8522 20.8061C91.6504 20.2465 92.6049 19.8104 93.7157 19.5018C94.8307 19.1932 95.9745 19.041 97.1512 19.041C99.4141 19.041 101.15 19.58 102.364 20.6579L102.372 20.6538ZM98.7599 30.7298C99.3194 30.3966 99.7185 29.9028 99.9531 29.2487V27.7552H97.0483C95.3121 27.7552 94.4399 28.327 94.4399 29.4667C94.4399 30.0098 94.6538 30.4418 95.0776 30.7545C95.5014 31.0713 96.0856 31.2318 96.8303 31.2318C97.575 31.2318 98.1962 31.0631 98.7599 30.7298Z" fill="#F8F8F8"/>
<path d="M109.375 33.6345C108.215 33.3342 107.293 32.9598 106.606 32.5072L108.017 29.4667C108.667 29.8823 109.457 30.2237 110.379 30.4871C111.3 30.7504 112.206 30.882 113.094 30.882C114.888 30.882 115.781 30.4377 115.781 29.5531C115.781 29.1376 115.538 28.8372 115.049 28.6562C114.559 28.4752 113.81 28.3229 112.794 28.1954C111.601 28.0144 110.613 27.8045 109.836 27.57C109.058 27.3355 108.383 26.9199 107.811 26.3193C107.24 25.7227 106.956 24.871 106.956 23.7684C106.956 22.8468 107.223 22.028 107.758 21.3121C108.293 20.5962 109.07 20.0408 110.095 19.6417C111.115 19.2426 112.325 19.0451 113.72 19.0451C114.752 19.0451 115.777 19.1603 116.801 19.3866C117.822 19.6129 118.669 19.9256 119.34 20.3247L117.929 23.3405C116.645 22.6164 115.242 22.2543 113.72 22.2543C112.814 22.2543 112.136 22.3818 111.683 22.6328C111.23 22.8879 111.004 23.2129 111.004 23.612C111.004 24.0646 111.247 24.3814 111.736 24.5624C112.226 24.7435 113.004 24.9163 114.073 25.0767C115.267 25.2783 116.246 25.4882 117.007 25.7144C117.768 25.9407 118.426 26.3522 118.99 26.9487C119.55 27.5453 119.833 28.3805 119.833 29.4461C119.833 30.3513 119.562 31.1577 119.019 31.8612C118.476 32.5689 117.682 33.1161 116.641 33.5029C115.6 33.8937 114.366 34.0871 112.934 34.0871C111.72 34.0871 110.535 33.939 109.375 33.6386V33.6345Z" fill="#F8F8F8"/>
<path d="M136.665 19.2591L130.066 34.766C129.395 36.4487 128.568 37.6336 127.581 38.3249C126.593 39.0119 125.404 39.3575 124.009 39.3575C123.248 39.3575 122.5 39.2382 121.755 39.0037C121.014 38.7692 120.405 38.4442 119.936 38.0245L121.483 35.0087C121.808 35.2967 122.183 35.523 122.611 35.6876C123.034 35.8521 123.458 35.9303 123.874 35.9303C124.454 35.9303 124.923 35.7904 125.285 35.5107C125.647 35.2309 125.972 34.7618 126.264 34.1118L126.318 33.976L119.99 19.2591H124.363L128.465 29.1705L132.592 19.2591H136.665Z" fill="#F8F8F8"/>
<path d="M139.545 33.6345C138.385 33.3342 137.463 32.9598 136.776 32.5072L138.187 29.4667C138.838 29.8823 139.627 30.2237 140.549 30.4871C141.471 30.7504 142.376 30.882 143.265 30.882C145.058 30.882 145.951 30.4377 145.951 29.5531C145.951 29.1376 145.708 28.8372 145.219 28.6562C144.729 28.4752 143.98 28.3229 142.964 28.1954C141.771 28.0144 140.784 27.8045 140.006 27.57C139.228 27.3355 138.554 26.9199 137.982 26.3193C137.41 25.7227 137.126 24.871 137.126 23.7684C137.126 22.8468 137.393 22.028 137.928 21.3121C138.463 20.5962 139.241 20.0408 140.265 19.6417C141.29 19.2426 142.495 19.0451 143.89 19.0451C144.923 19.0451 145.947 19.1603 146.972 19.3866C147.996 19.6129 148.839 19.9256 149.51 20.3247L148.099 23.3405C146.815 22.6164 145.412 22.2543 143.89 22.2543C142.985 22.2543 142.306 22.3818 141.853 22.6328C141.401 22.8879 141.174 23.2129 141.174 23.612C141.174 24.0646 141.417 24.3814 141.907 24.5624C142.396 24.7435 143.174 24.9163 144.244 25.0767C145.437 25.2783 146.416 25.4882 147.177 25.7144C147.938 25.9407 148.597 26.3522 149.16 26.9487C149.72 27.5453 150.004 28.3805 150.004 29.4461C150.004 30.3513 149.732 31.1577 149.189 31.8612C148.646 32.5689 147.856 33.1161 146.815 33.5029C145.774 33.8937 144.54 34.0871 143.108 34.0871C141.894 34.0871 140.71 33.939 139.549 33.6386L139.545 33.6345Z" fill="#F8F8F8"/>
</g>
<defs>
<clipPath id="clip0_574_531">
<rect width="150" height="45.599" fill="white"/>
</clipPath>
</defs>
</svg>
