<svg width="102" height="347" viewBox="0 0 102 347" fill="none" xmlns="http://www.w3.org/2000/svg">
<path d="M87.6209 38.7283C87.6209 28.3811 79.5854 19.889 69.4417 19.1573C66.5068 12.0324 59.4902 7 51.3265 7C43.1628 7 36.1525 12.0259 33.2113 19.1508C23.0483 19.8698 15 28.3747 15 38.7283C15 45.1599 18.1014 50.8727 22.8817 54.4608C25.3808 68.1137 37.2162 78.1399 51.3265 78.1399C65.4367 78.1399 77.2785 68.088 79.7712 54.4351C84.5323 50.8534 87.6209 45.1471 87.6209 38.7283ZM65.1548 26.6288C65.1548 33.2594 60.4834 38.8117 54.2677 40.1661C54.2165 39.6911 54.1908 39.2161 54.1908 38.7283C54.1908 32.0976 58.8622 26.5453 65.0779 25.191C65.1291 25.666 65.1548 26.1409 65.1548 26.6288ZM51.3073 67.7863C49.0196 65.2573 47.7445 61.9773 47.7445 58.5047C47.7445 55.0321 49.0965 51.6879 51.3073 49.2295C53.5244 51.6879 54.8701 54.9422 54.8701 58.5047C54.8701 62.0671 53.5949 65.2637 51.3073 67.7863ZM37.5687 25.2038C43.7715 26.571 48.4237 32.1169 48.4237 38.7347C48.4237 39.2161 48.3981 39.6911 48.3532 40.1661C42.1503 38.7989 37.4982 33.253 37.4982 26.6352C37.4982 26.1538 37.5238 25.6788 37.5687 25.2038ZM41.0418 44.6529C42.977 44.6529 44.8224 45.0572 46.4949 45.7761C44.0855 49.8457 39.6513 52.5801 34.5954 52.5801C32.6538 52.5801 30.8083 52.1757 29.1295 51.4504C31.5837 47.2974 36.0885 44.6464 41.0418 44.6464V44.6529ZM56.1196 45.7761C57.7921 45.0572 59.6376 44.6529 61.5727 44.6529C66.5261 44.6529 71.0308 47.3038 73.4851 51.4568C71.8062 52.1821 69.9607 52.5865 68.0255 52.5865C62.9697 52.5865 58.5354 49.8521 56.126 45.7761H56.1196ZM51.3201 12.7769C56.4208 12.7769 60.8807 15.5563 63.2772 19.6836C58.2342 20.9417 53.9537 24.1639 51.3008 28.4902C48.6544 24.1704 44.3867 20.9545 39.3565 19.69C41.7531 15.5627 46.213 12.7769 51.3201 12.7769ZM31.7823 25.1653C31.7439 25.6531 31.7247 26.1409 31.7247 26.6352C31.7247 31.5135 33.5189 35.981 36.4665 39.4215C31.4748 40.6218 27.1366 43.7478 24.4132 48.1062C22.1448 45.6349 20.7543 42.3485 20.7543 38.7347C20.7543 32.0591 25.4898 26.4683 31.7759 25.1653H31.7823ZM29.7895 57.7665C31.3274 58.1581 32.9358 58.3635 34.589 58.3635C37.2291 58.3635 39.741 57.8371 42.0414 56.8871C41.9966 57.4263 41.9709 57.9655 41.9709 58.5111C41.9709 63.6077 43.9125 68.3961 47.36 72.0227C39.3565 70.6555 32.7307 65.2059 29.7895 57.7665ZM55.2481 72.0292C58.702 68.4089 60.6372 63.6269 60.6372 58.5111C60.6372 57.9655 60.6116 57.4199 60.5667 56.8871C62.8671 57.8371 65.3855 58.3699 68.0255 58.3699C69.6916 58.3699 71.3064 58.1581 72.8507 57.7665C69.903 65.2124 63.2516 70.6684 55.2545 72.0356L55.2481 72.0292ZM78.1885 48.1126C75.4715 43.7606 71.1462 40.6347 66.1672 39.4279C69.1213 35.9874 70.9155 31.5199 70.9155 26.6352C70.9155 26.1409 70.8899 25.6595 70.8578 25.1781C77.1248 26.494 81.8474 32.0719 81.8474 38.7347C81.8474 42.3485 80.4569 45.6414 78.1885 48.1062V48.1126Z" fill="white"/>
<path d="M57.6853 334.463C57.0519 335.718 56.1708 336.702 55.0461 337.406C53.9214 338.111 52.6424 338.465 51.2132 338.465C49.784 338.465 48.505 338.111 47.3803 337.406C46.2556 336.702 45.3745 335.718 44.7411 334.463C44.1077 333.208 43.791 331.79 43.791 330.21C43.791 328.63 44.1077 327.288 44.7411 326.125C45.3745 324.961 46.284 324.111 47.4615 323.581L49.2034 326.913C47.8797 327.684 47.2219 328.793 47.2219 330.244C47.2219 331.361 47.5793 332.291 48.2939 333.025C49.0085 333.758 49.9829 334.125 51.2132 334.125C52.4435 334.125 53.4179 333.758 54.1325 333.025C54.8471 332.291 55.2044 331.365 55.2044 330.244C55.2044 328.776 54.5426 327.667 53.223 326.913L54.9933 323.581C56.1383 324.115 57.0316 324.961 57.6731 326.125C58.3146 327.288 58.6394 328.651 58.6394 330.21C58.6394 331.77 58.3227 333.204 57.6893 334.463H57.6853Z" fill="white"/>
<path d="M57.6853 318.445C57.0519 319.683 56.1708 320.65 55.0461 321.347C53.9214 322.043 52.6424 322.393 51.2132 322.393C49.784 322.393 48.505 322.047 47.3803 321.347C46.2556 320.65 45.3745 319.683 44.7411 318.445C44.1077 317.207 43.791 315.81 43.791 314.251C43.791 312.691 44.1077 311.299 44.7411 310.069C45.3745 308.839 46.2556 307.876 47.3803 307.18C48.505 306.484 49.784 306.133 51.2132 306.133C52.6424 306.133 53.9214 306.484 55.0461 307.18C56.1708 307.876 57.0519 308.839 57.6853 310.069C58.3187 311.299 58.6354 312.691 58.6354 314.251C58.6354 315.81 58.3187 317.207 57.6853 318.445ZM54.1204 311.537C53.3976 310.832 52.4272 310.478 51.2132 310.478C49.9992 310.478 49.0288 310.832 48.306 311.537C47.5833 312.241 47.2219 313.146 47.2219 314.247C47.2219 315.347 47.5833 316.256 48.306 316.969C49.0288 317.686 49.9992 318.04 51.2132 318.04C52.4272 318.04 53.3976 317.682 54.1204 316.969C54.8431 316.252 55.2044 315.347 55.2044 314.247C55.2044 313.146 54.8431 312.241 54.1204 311.537Z" fill="white"/>
<path d="M45.3826 292.262C46.4464 291.033 48.0502 290.42 50.1941 290.42H58.4202V294.439H56.6255C57.9654 295.248 58.6354 296.748 58.6354 298.95C58.6354 300.088 58.4486 301.072 58.071 301.91C57.6975 302.744 57.1777 303.382 56.5159 303.824C55.8541 304.266 55.1029 304.482 54.2665 304.482C52.9266 304.482 51.871 303.965 51.1036 302.927C50.3362 301.893 49.9505 300.292 49.9505 298.124V294.714C49.041 294.714 48.3385 294.997 47.8472 295.569C47.3559 296.136 47.1123 296.99 47.1123 298.128C47.1123 298.916 47.2341 299.692 47.4737 300.455C47.7132 301.218 48.0421 301.864 48.4522 302.394L45.5329 303.936C44.9807 303.127 44.5503 302.16 44.2458 301.034C43.9412 299.905 43.791 298.746 43.791 297.553C43.791 295.26 44.3229 293.501 45.3867 292.271L45.3826 292.262ZM55.3263 295.923C54.9974 295.356 54.5101 294.952 53.8646 294.714H52.3907V297.657C52.3907 299.417 52.9551 300.301 54.0798 300.301C54.6157 300.301 55.042 300.084 55.3506 299.654C55.6633 299.225 55.8216 298.633 55.8216 297.878C55.8216 297.124 55.6551 296.494 55.3263 295.923Z" fill="white"/>
<path d="M58.1928 285.167C57.8964 286.342 57.5269 287.276 57.0803 287.972L54.0798 286.542C54.4898 285.884 54.8268 285.083 55.0867 284.149C55.3466 283.215 55.4765 282.298 55.4765 281.398C55.4765 279.58 55.038 278.675 54.165 278.675C53.7549 278.675 53.4585 278.921 53.2799 279.417C53.1012 279.913 52.951 280.672 52.8251 281.702C52.6465 282.911 52.4394 283.912 52.208 284.7C51.9765 285.488 51.5664 286.171 50.9736 286.751C50.3849 287.33 49.5444 287.618 48.4563 287.618C47.5468 287.618 46.7388 287.347 46.0323 286.805C45.3258 286.263 44.7777 285.475 44.3838 284.437C43.99 283.403 43.7951 282.177 43.7951 280.764C43.7951 279.717 43.9088 278.679 44.1321 277.641C44.3554 276.607 44.664 275.748 45.0578 275.069L48.034 276.499C47.3194 277.8 46.9621 279.221 46.9621 280.764C46.9621 281.681 47.088 282.369 47.3356 282.828C47.5874 283.286 47.9081 283.516 48.302 283.516C48.7486 283.516 49.0613 283.27 49.2399 282.773C49.4186 282.277 49.5891 281.489 49.7474 280.405C49.9464 279.196 50.1535 278.204 50.3768 277.433C50.6001 276.661 51.0061 275.994 51.5949 275.423C52.1836 274.856 53.0078 274.568 54.0594 274.568C54.9527 274.568 55.7485 274.844 56.4428 275.394C57.1412 275.944 57.6812 276.749 58.0629 277.804C58.4486 278.859 58.6394 280.109 58.6394 281.56C58.6394 282.79 58.4933 283.991 58.1969 285.167H58.1928Z" fill="white"/>
<path d="M44.0062 257.512L59.3094 264.2C60.97 264.879 62.1394 265.717 62.8215 266.718C63.4996 267.718 63.8406 268.923 63.8406 270.337C63.8406 271.108 63.7229 271.867 63.4915 272.621C63.26 273.372 62.9393 273.989 62.5251 274.464L59.5489 272.897C59.8332 272.567 60.0565 272.188 60.2189 271.754C60.3813 271.325 60.4584 270.895 60.4584 270.474C60.4584 269.886 60.3204 269.411 60.0443 269.044C59.7682 268.677 59.3053 268.348 58.6638 268.052L58.5298 267.998L44.0062 274.41L44.0062 269.978L53.7874 265.822L44.0062 261.64L44.0062 257.512Z" fill="white"/>
<path d="M58.1928 254.594C57.8964 255.77 57.5269 256.704 57.0803 257.4L54.0797 255.97C54.4898 255.311 54.8268 254.511 55.0867 253.577C55.3466 252.643 55.4765 251.726 55.4765 250.825C55.4765 249.007 55.038 248.102 54.165 248.102C53.7549 248.102 53.4585 248.348 53.2799 248.845C53.1012 249.341 52.951 250.1 52.8251 251.129C52.6465 252.338 52.4394 253.339 52.208 254.127C51.9765 254.915 51.5664 255.599 50.9736 256.178C50.3849 256.758 49.5444 257.045 48.4563 257.045C47.5468 257.045 46.7388 256.774 46.0323 256.232C45.3258 255.69 44.7777 254.902 44.3838 253.864C43.99 252.826 43.7951 251.605 43.7951 250.191C43.7951 249.145 43.9088 248.107 44.1321 247.069C44.3554 246.03 44.664 245.176 45.0578 244.496L48.034 245.926C47.3194 247.227 46.9621 248.649 46.9621 250.191C46.9621 251.108 47.088 251.796 47.3356 252.255C47.5874 252.714 47.9081 252.943 48.302 252.943C48.7486 252.943 49.0612 252.697 49.2399 252.201C49.4186 251.705 49.5891 250.917 49.7474 249.833C49.9464 248.624 50.1535 247.631 50.3768 246.86C50.6001 246.089 51.0061 245.422 51.5949 244.851C52.1836 244.284 53.0078 243.996 54.0594 243.996C54.9527 243.996 55.7485 244.271 56.4428 244.821C57.1412 245.372 57.6812 246.172 58.0629 247.227C58.4486 248.282 58.6394 249.533 58.6394 250.983C58.6394 252.213 58.4933 253.414 58.1969 254.59L58.1928 254.594Z" fill="white"/>
<path d="M51 209L51 105" stroke="#88F3B4" stroke-linecap="round"/>
</svg>
