<svg width="264" height="113" viewBox="0 0 264 113" fill="none" xmlns="http://www.w3.org/2000/svg">
<path d="M111.12 5.48047V0.980469H45.2396V1.0105C20.5496 1.7405 0.689575 21.6905 0.689575 46.1205C0.689575 49.5605 1.0996 52.9005 1.8396 56.1105L1.17969 56.5005L1.80969 56.8805C1.07969 60.1005 0.679688 63.4305 0.679688 66.8705C0.679688 91.7605 20.9296 112.021 45.8296 112.021C70.7296 112.021 90.9796 91.7705 90.9796 66.8705V66.2205C95.9796 64.5805 100.54 62.5905 104.49 60.2705L111.07 56.3905L104.49 52.5105C100.36 50.0805 95.5096 48.0105 90.1296 46.3605C102.51 39.1505 111.11 23.5405 111.11 5.48047H111.12ZM45.8296 103.021C28.2596 103.021 13.5896 90.4205 10.3496 73.7805C18.7596 84.4105 31.8896 91.2705 46.6196 91.2705C59.7596 91.2705 72.1196 85.6705 80.7096 76.3605C76.5296 91.7005 62.4796 103.021 45.8296 103.021ZM14.4197 63.8005C25.7097 68.6705 40.4696 71.4005 56.1896 71.4005C62.3896 71.4005 68.4697 70.9405 74.2697 70.0905C67.3497 77.7005 57.3196 82.2805 46.6296 82.2805C32.8196 82.2805 20.7597 74.8205 14.4297 63.8005H14.4197ZM56.1896 62.4005C42.9696 62.4005 30.2397 60.2605 20.3997 56.5105C30.2397 52.7605 42.9696 50.6205 56.1896 50.6205C69.4096 50.6205 81.9096 52.7205 91.7096 56.4105C81.7796 60.2205 69.1396 62.3905 56.1896 62.3905V62.4005ZM14.2697 49.2905C20.4597 38.2305 32.2796 30.7305 45.8396 30.7305C56.1896 30.7305 65.8997 35.1605 72.6797 42.6605C67.3897 41.9805 61.8496 41.6205 56.1996 41.6205C40.4096 41.6205 25.5797 44.3705 14.2797 49.2805L14.2697 49.2905ZM82.2697 40.2205C73.8297 28.6905 60.3296 21.7205 45.8296 21.7205C31.3296 21.7205 18.6997 28.4505 10.4197 38.9105C13.8397 22.4205 28.7696 9.97046 46.6196 9.97046H101.9C100.53 24.4405 92.6597 36.2805 82.2697 40.2205Z" fill="white"/>
<path d="M149.6 48.7605H158.71V56.6805H149.87V83.4805H139.57V56.6805H134.09V48.7605H139.57V47.1805C139.57 43.1305 140.77 39.9205 143.17 37.5405C145.57 35.1605 148.95 33.9805 153.3 33.9805C154.84 33.9805 156.3 34.1505 157.69 34.4805C159.08 34.8105 160.23 35.2805 161.16 35.9005L158.45 43.3605C157.26 42.5205 155.88 42.1105 154.29 42.1105C151.17 42.1105 149.6 43.8305 149.6 47.2605V48.7805V48.7605ZM163.86 34.5005H174.16V83.4705H163.86V34.5005Z" fill="white"/>
<path d="M219.49 47.9609V83.4709H209.719V79.2509C208.359 80.7909 206.729 81.9709 204.839 82.7809C202.949 83.5909 200.899 84.0009 198.699 84.0009C194.039 84.0009 190.339 82.6609 187.609 79.9709C184.879 77.2909 183.52 73.3009 183.52 68.0209V47.9609H193.819V66.5109C193.819 72.2309 196.22 75.0909 201.01 75.0909C203.47 75.0909 205.449 74.2909 206.949 72.6809C208.449 71.0709 209.189 68.6909 209.189 65.5209V47.9609H219.49Z" fill="white"/>
<path d="M251.63 83.4709L243.84 72.5809L235.79 83.4709H224.57L238.23 65.5809L225.03 47.9609H236.58L244.1 58.3209L251.82 47.9609H262.78L249.58 65.3209L263.31 83.4709H251.63Z" fill="white"/>
</svg>
