<svg width="114" height="47" viewBox="0 0 114 47" fill="none" xmlns="http://www.w3.org/2000/svg">
<rect x="0.5" y="0.5" width="113" height="46" rx="23" fill="#131533" fill-opacity="0.3" stroke="#88F3B4"/>
<path d="M35.168 29V18.44H37.472V29H35.168ZM35.648 29V27.064H41.936V29H35.648ZM46.9265 29.224C46.0838 29.224 45.3425 29.0587 44.7025 28.728C44.0625 28.3867 43.5612 27.8907 43.1985 27.24C42.8358 26.5787 42.6545 25.7573 42.6545 24.776C42.6545 23.7947 42.8358 22.9787 43.1985 22.328C43.5718 21.6773 44.0785 21.192 44.7185 20.872C45.3692 20.5413 46.1052 20.376 46.9265 20.376C47.7692 20.376 48.5105 20.5413 49.1505 20.872C49.8012 21.2027 50.3078 21.6987 50.6705 22.36C51.0438 23.0107 51.2305 23.8267 51.2305 24.808C51.2305 25.8 51.0385 26.6267 50.6545 27.288C50.2812 27.9387 49.7692 28.424 49.1185 28.744C48.4785 29.064 47.7478 29.224 46.9265 29.224ZM47.0065 27.512C47.4225 27.512 47.7692 27.416 48.0465 27.224C48.3345 27.032 48.5478 26.744 48.6865 26.36C48.8358 25.9653 48.9105 25.4907 48.9105 24.936C48.9105 24.3493 48.8305 23.8533 48.6705 23.448C48.5212 23.032 48.2972 22.7173 47.9985 22.504C47.6998 22.28 47.3212 22.168 46.8625 22.168C46.4678 22.168 46.1265 22.264 45.8385 22.456C45.5505 22.6373 45.3318 22.9253 45.1825 23.32C45.0332 23.704 44.9585 24.1787 44.9585 24.744C44.9585 25.6507 45.1398 26.3387 45.5025 26.808C45.8652 27.2773 46.3665 27.512 47.0065 27.512ZM56.1965 31.928C55.2792 31.928 54.5218 31.8533 53.9245 31.704C53.3378 31.5653 52.9058 31.3573 52.6285 31.08C52.3512 30.8027 52.2125 30.456 52.2125 30.04C52.2125 29.5493 52.4045 29.1493 52.7885 28.84C53.1832 28.5307 53.7592 28.344 54.5165 28.28V27.96C53.9405 27.96 53.4978 27.9013 53.1885 27.784C52.8792 27.656 52.7245 27.4373 52.7245 27.128C52.7245 26.8293 52.8738 26.5627 53.1725 26.328C53.4818 26.0933 53.9885 25.9067 54.6925 25.768V25.448C54.0312 25.4053 53.5138 25.192 53.1405 24.808C52.7672 24.424 52.5805 23.928 52.5805 23.32C52.5805 22.7867 52.7298 22.312 53.0285 21.896C53.3272 21.4693 53.7698 21.1333 54.3565 20.888C54.9538 20.632 55.6845 20.504 56.5485 20.504H60.8045V22.264L58.1645 21.896V22.264C58.8472 22.36 59.3378 22.5307 59.6365 22.776C59.9458 23.0213 60.1005 23.3627 60.1005 23.8C60.1005 24.2373 59.9565 24.6213 59.6685 24.952C59.3805 25.2827 58.9698 25.544 58.4365 25.736C57.9138 25.9173 57.2845 26.008 56.5485 26.008C56.4098 26.008 56.2605 26.0027 56.1005 25.992C55.9405 25.9813 55.6738 25.9547 55.3005 25.912C55.0978 26.0613 54.9378 26.1947 54.8205 26.312C54.7138 26.4187 54.6605 26.52 54.6605 26.616C54.6605 26.6907 54.6978 26.7547 54.7725 26.808C54.8578 26.8613 54.9645 26.8987 55.0925 26.92C55.2312 26.9413 55.3698 26.952 55.5085 26.952H57.9085C58.1218 26.952 58.3992 26.968 58.7405 27C59.0818 27.0213 59.4232 27.1013 59.7645 27.24C60.1058 27.3787 60.3938 27.6027 60.6285 27.912C60.8632 28.2107 60.9805 28.6427 60.9805 29.208C60.9805 29.8267 60.8045 30.3387 60.4525 30.744C60.1112 31.1493 59.5832 31.448 58.8685 31.64C58.1645 31.832 57.2738 31.928 56.1965 31.928ZM56.4525 30.088C57.1032 30.088 57.6098 30.0507 57.9725 29.976C58.3352 29.912 58.5912 29.8 58.7405 29.64C58.9005 29.4907 58.9805 29.2987 58.9805 29.064C58.9805 28.8507 58.9325 28.6853 58.8365 28.568C58.7512 28.4507 58.6338 28.3707 58.4845 28.328C58.3458 28.2747 58.2018 28.2427 58.0525 28.232C57.9138 28.2107 57.7912 28.2 57.6845 28.2H55.6685C55.2205 28.2427 54.8952 28.3653 54.6925 28.568C54.5005 28.76 54.4045 28.984 54.4045 29.24C54.4045 29.4747 54.4792 29.6507 54.6285 29.768C54.7778 29.8853 55.0018 29.9653 55.3005 30.008C55.6098 30.0613 55.9938 30.088 56.4525 30.088ZM56.4205 24.808C56.9325 24.808 57.3165 24.6853 57.5725 24.44C57.8285 24.184 57.9565 23.8533 57.9565 23.448C57.9565 23.0213 57.8232 22.6693 57.5565 22.392C57.3005 22.1147 56.9218 21.976 56.4205 21.976C55.9298 21.976 55.5458 22.1147 55.2685 22.392C54.9912 22.6587 54.8525 23.0053 54.8525 23.432C54.8525 23.6987 54.9112 23.9387 55.0285 24.152C55.1565 24.3547 55.3378 24.5147 55.5725 24.632C55.8072 24.7493 56.0898 24.808 56.4205 24.808ZM66.1654 29V20.6H68.4694V29H66.1654ZM67.3334 19.336C66.8854 19.336 66.5387 19.2453 66.2934 19.064C66.0587 18.872 65.9414 18.5947 65.9414 18.232C65.9414 17.8587 66.0587 17.576 66.2934 17.384C66.5387 17.192 66.8854 17.096 67.3334 17.096C67.792 17.096 68.1387 17.192 68.3734 17.384C68.6187 17.576 68.7414 17.8587 68.7414 18.232C68.7414 18.584 68.6187 18.856 68.3734 19.048C68.1387 19.24 67.792 19.336 67.3334 19.336ZM70.6029 29V23.912V20.6H72.4909L72.4749 23.112H72.7949C72.9335 22.504 73.1309 21.9973 73.3869 21.592C73.6429 21.1867 73.9629 20.8827 74.3469 20.68C74.7415 20.4773 75.2055 20.376 75.7389 20.376C76.7095 20.376 77.4455 20.7173 77.9469 21.4C78.4589 22.0827 78.7149 23.1547 78.7149 24.616V29H76.3949V24.872C76.3949 23.976 76.2615 23.3253 75.9949 22.92C75.7389 22.504 75.3602 22.296 74.8589 22.296C74.4322 22.296 74.0749 22.4293 73.7869 22.696C73.4989 22.9627 73.2802 23.3147 73.1309 23.752C72.9922 24.1787 72.9175 24.6587 72.9069 25.192V29H70.6029Z" fill="white"/>
</svg>
