<svg width="56" height="50" viewBox="0 0 56 50" fill="none" xmlns="http://www.w3.org/2000/svg">
<path d="M53.5625 36.0966C52.163 32.7107 50.029 29.7955 47.2141 27.4205C42.5654 23.4943 36.3242 21.6596 30.0777 22.2801C30.0777 22.2105 30.0777 22.1357 30.0724 22.0661C30.2922 17.0059 32.5549 12.3416 36.4422 9.06265C36.7317 8.81659 37.032 8.58123 37.3323 8.35657C41.1606 10.555 44.2222 14.0426 45.8307 18.3325C45.9594 18.7176 46.5707 20.6112 46.7744 22.6813C48.3722 21.0391 49.7609 19.2846 50.088 18.8621C53.7501 14.4224 55.6321 8.63472 55.2675 2.79894L55.1549 1.00702L53.4016 0.600489C49.97 -0.191166 46.3508 -0.201864 42.9461 0.579093C40.8442 1.06051 38.8657 1.82007 37.0159 2.84173C34.1098 1.62215 30.941 0.958874 27.6703 0.958874C24.3996 0.958874 21.2361 1.60611 18.2925 2.84173C16.4426 1.82007 14.4641 1.06051 12.3623 0.579093C8.95754 -0.201864 5.34367 -0.191166 1.90675 0.600489L0.158799 1.00167L0.0462012 2.79359C-0.409553 10.1431 2.52336 17.0541 8.09965 21.7559C12.1585 25.1846 17.4238 27.0193 22.8554 27.0193C23.6489 27.0193 24.4425 26.9765 25.236 26.9016C25.236 26.9712 25.236 27.0461 25.2414 27.1156C25.0215 32.1758 22.7588 36.8401 18.8715 40.1191C18.3353 40.5737 17.7724 40.991 17.1933 41.3761C13.5526 39.0493 10.7108 35.5136 9.27388 31.213C9.19882 31.015 8.4857 29.0199 8.23369 26.8268C6.786 28.3673 5.75117 29.6617 5.40265 30.1057C1.62794 34.5775 -0.318402 40.4507 0.051563 46.3828L0.164161 48.1747L1.91747 48.5812C3.70296 48.9931 5.4938 49.1964 7.2632 49.1964C10.7377 49.1964 14.137 48.4154 17.2362 46.9016C20.4265 48.4208 23.976 49.2552 27.681 49.2552C31.386 49.2552 34.9248 48.4208 38.1097 46.907C39.6432 47.6505 41.2625 48.2175 42.9568 48.608C44.6404 48.9931 46.3776 49.1857 48.1202 49.1857C49.8628 49.1857 51.6751 48.9824 53.4123 48.5866L55.1656 48.1801L55.2782 46.3881C55.4981 42.8792 54.9083 39.3221 53.5732 36.102L53.5625 36.0966ZM44.0989 31.0953C44.6243 31.5392 45.123 32.01 45.5841 32.5021C44.0399 36.2303 41.4072 39.2953 38.1312 41.3868C37.5467 41.0017 36.9837 40.5791 36.4368 40.1191C32.5549 36.8401 30.2922 32.1865 30.067 27.137C30.067 27.137 30.067 27.1263 30.067 27.1209C35.1875 26.4791 40.3188 27.9126 44.0935 31.0953H44.0989ZM50.4741 4.9546C50.3668 7.6612 49.6591 10.2983 48.4312 12.6679C46.8012 9.97198 44.6672 7.6398 42.1847 5.78904C44.8066 4.87971 47.6323 4.59086 50.4741 4.95994V4.9546ZM32.2814 6.32394C30.3726 8.14796 28.8177 10.2501 27.6649 12.5449C26.5068 10.2501 24.9572 8.14261 23.043 6.32394C24.5443 5.95486 26.0993 5.76765 27.681 5.76765C29.2627 5.76765 30.7962 5.96021 32.2814 6.32394ZM13.1505 5.78904C10.6143 7.68795 8.50178 10.0308 6.8986 12.7107C5.65466 10.3464 4.9469 7.70934 4.85039 4.9546C7.69751 4.58551 10.5232 4.87971 13.1505 5.78904ZM22.85 22.2052C18.5552 22.2052 14.4051 20.7663 11.2256 18.0811C10.8234 17.7388 10.4374 17.3857 10.0674 17.0166C11.4883 13.9303 13.692 11.2825 16.507 9.298C16.9895 8.95566 17.4828 8.64542 17.9922 8.35122C18.2925 8.57588 18.5927 8.81124 18.8823 9.05195C22.7642 12.3309 25.0269 16.9846 25.2521 22.034C25.2521 22.034 25.2521 22.0447 25.2521 22.0501C24.4478 22.1517 23.6489 22.1998 22.85 22.1998V22.2052ZM4.84502 44.2218C4.9469 41.7184 5.55815 39.2739 6.62515 37.0434C8.08356 39.6056 9.97628 41.8468 12.2014 43.6869C9.8476 44.3609 7.35435 44.5481 4.85039 44.2218H4.84502ZM22.1637 43.6441C24.48 41.6489 26.3298 39.2686 27.6595 36.6315C28.9893 39.2739 30.8445 41.6542 33.1608 43.6494C31.4128 44.1629 29.5683 44.4357 27.6756 44.4357C25.7829 44.4357 23.9224 44.1576 22.1637 43.6387V43.6441ZM43.1391 43.6922C45.3642 41.8522 47.2623 39.6109 48.7207 37.0541C49.7824 39.2632 50.3829 41.697 50.4741 44.2218C47.9755 44.5481 45.4876 44.3609 43.1391 43.6922Z" fill="white"/>
</svg>
