<svg width="408" height="93" viewBox="0 0 408 93" fill="none" xmlns="http://www.w3.org/2000/svg">
<path d="M140.431 63.4692C137.611 62.7392 135.371 61.8292 133.701 60.7292L137.131 53.3393C138.711 54.3493 140.631 55.1793 142.871 55.8193C145.111 56.4593 147.311 56.7793 149.471 56.7793C153.831 56.7793 156.001 55.6993 156.001 53.5493C156.001 52.5393 155.411 51.8093 154.221 51.3693C153.031 50.9293 151.211 50.5593 148.741 50.2493C145.841 49.8093 143.441 49.2992 141.551 48.7292C139.661 48.1592 138.021 47.1493 136.631 45.6893C135.241 44.2393 134.551 42.1693 134.551 39.4893C134.551 37.2493 135.201 35.2593 136.501 33.5193C137.801 31.7793 139.691 30.4293 142.181 29.4593C144.671 28.4893 147.601 28.0093 150.991 28.0093C153.501 28.0093 155.991 28.2893 158.481 28.8293C160.971 29.3793 163.021 30.1393 164.651 31.1093L161.221 38.4393C158.101 36.6793 154.691 35.7993 150.991 35.7993C148.791 35.7993 147.141 36.1092 146.041 36.7192C144.941 37.3392 144.391 38.1292 144.391 39.0992C144.391 40.1992 144.981 40.9692 146.171 41.4092C147.361 41.8492 149.251 42.2692 151.851 42.6592C154.751 43.1392 157.131 43.6593 158.981 44.2093C160.831 44.7593 162.431 45.7593 163.801 47.2093C165.161 48.6593 165.851 50.6893 165.851 53.2793C165.851 55.4793 165.191 57.4393 163.871 59.1493C162.551 60.8693 160.631 62.1993 158.101 63.1393C155.571 64.0893 152.571 64.5593 149.091 64.5593C146.141 64.5593 143.261 64.1992 140.441 63.4692H140.431ZM206.761 28.5193L190.721 66.2093C189.091 70.2993 187.081 73.1793 184.681 74.8593C182.281 76.5293 179.391 77.3693 176.001 77.3693C174.151 77.3693 172.321 77.0793 170.521 76.5093C168.721 75.9393 167.241 75.1493 166.101 74.1293L169.861 66.7993C170.651 67.4993 171.571 68.0493 172.601 68.4493C173.631 68.8493 174.661 69.0392 175.671 69.0392C177.081 69.0392 178.221 68.6993 179.101 68.0193C179.981 67.3393 180.771 66.1993 181.481 64.6193L181.611 64.2892L166.231 28.5193H176.861L186.831 52.6093L196.861 28.5193H206.761ZM243.231 31.9593C245.941 34.5993 247.291 38.5193 247.291 43.7093V64.0392H236.991V45.2993C236.991 42.4793 236.371 40.3793 235.141 38.9993C233.911 37.6093 232.131 36.9193 229.791 36.9193C227.191 36.9193 225.131 37.7193 223.591 39.3293C222.051 40.9393 221.281 43.3193 221.281 46.4893V64.0493H210.981V28.5392H220.811V32.6993C222.171 31.1993 223.871 30.0493 225.891 29.2393C227.911 28.4293 230.141 28.0193 232.561 28.0193C236.961 28.0193 240.511 29.3392 243.221 31.9792L243.231 31.9593ZM291.571 49.1793H264.711C265.191 51.3793 266.341 53.1193 268.141 54.3893C269.941 55.6693 272.191 56.2993 274.871 56.2993C276.721 56.2993 278.361 56.0292 279.791 55.4692C281.221 54.9192 282.551 54.0493 283.781 52.8593L289.261 58.7993C285.921 62.6293 281.031 64.5392 274.611 64.5392C270.611 64.5392 267.061 63.7593 263.981 62.1993C260.901 60.6393 258.521 58.4693 256.851 55.6993C255.181 52.9293 254.341 49.7793 254.341 46.2593C254.341 42.7393 255.171 39.6493 256.811 36.8593C258.461 34.0693 260.731 31.8893 263.611 30.3293C266.491 28.7693 269.711 27.9893 273.281 27.9893C276.851 27.9893 279.901 28.7392 282.721 30.2292C285.541 31.7292 287.751 33.8692 289.351 36.6592C290.961 39.4492 291.761 42.6993 291.761 46.3893C291.761 46.5193 291.691 47.4492 291.561 49.1592L291.571 49.1793ZM267.481 37.7593C265.901 39.0793 264.931 40.8793 264.581 43.1693H282.071C281.721 40.9293 280.751 39.1292 279.171 37.7892C277.591 36.4492 275.651 35.7793 273.361 35.7793C271.071 35.7793 269.071 36.4393 267.491 37.7593H267.481ZM313.451 29.3093C315.541 28.4293 317.951 27.9893 320.681 27.9893V37.4893C319.541 37.3993 318.771 37.3593 318.371 37.3593C315.421 37.3593 313.111 38.1893 311.441 39.8393C309.771 41.4893 308.931 43.9593 308.931 47.2693V64.0293H298.631V28.5193H308.461V33.2093C309.691 31.4893 311.351 30.1993 313.441 29.3193L313.451 29.3093ZM363.121 28.5193V58.0893C363.121 64.5993 361.431 69.4393 358.041 72.6093C354.651 75.7793 349.701 77.3593 343.191 77.3593C339.761 77.3593 336.501 76.9393 333.421 76.1093C330.341 75.2693 327.791 74.0592 325.761 72.4792L329.851 65.0893C331.351 66.3193 333.241 67.2993 335.531 68.0293C337.821 68.7593 340.111 69.1193 342.391 69.1193C345.951 69.1193 348.581 68.3193 350.281 66.7093C351.971 65.0993 352.821 62.6693 352.821 59.4193V57.8993C350.141 60.8493 346.401 62.3193 341.601 62.3193C338.341 62.3193 335.361 61.6093 332.661 60.1793C329.951 58.7493 327.811 56.7393 326.231 54.1393C324.651 51.5393 323.851 48.5492 323.851 45.1592C323.851 41.7692 324.641 38.7793 326.231 36.1793C327.811 33.5793 329.961 31.5693 332.661 30.1393C335.371 28.7093 338.351 27.9993 341.601 27.9993C346.751 27.9993 350.661 29.6893 353.351 33.0793V28.5293H363.121V28.5193ZM350.351 51.4593C352.091 49.8493 352.961 47.7492 352.961 45.1592C352.961 42.5692 352.091 40.4593 350.351 38.8593C348.611 37.2493 346.381 36.4493 343.651 36.4493C340.921 36.4493 338.681 37.2493 336.921 38.8593C335.161 40.4693 334.281 42.5692 334.281 45.1592C334.281 47.7492 335.161 49.8593 336.921 51.4593C338.681 53.0693 340.921 53.8693 343.651 53.8693C346.381 53.8693 348.611 53.0693 350.351 51.4593ZM407.931 28.5193L391.891 66.2093C390.261 70.2993 388.251 73.1793 385.851 74.8593C383.451 76.5293 380.561 77.3693 377.171 77.3693C375.321 77.3693 373.501 77.0793 371.691 76.5093C369.891 75.9393 368.411 75.1493 367.271 74.1293L371.031 66.7993C371.821 67.4993 372.731 68.0493 373.771 68.4493C374.801 68.8493 375.831 69.0392 376.841 69.0392C378.251 69.0392 379.391 68.6993 380.271 68.0193C381.151 67.3393 381.941 66.1993 382.651 64.6193L382.781 64.2892L367.401 28.5193H378.031L388.001 52.6093L398.031 28.5193H407.931Z" fill="white"/>
<path d="M99.9608 67.9397C97.3508 61.6096 93.3708 56.1596 88.1208 51.7196C79.4508 44.3796 67.8109 40.9496 56.1609 42.1096C56.1609 41.9796 56.1609 41.8397 56.1509 41.7097C56.5609 32.2497 60.7809 23.5297 68.0309 17.3997C68.5709 16.9397 69.1308 16.4997 69.6908 16.0797C76.8308 20.1897 82.5409 26.7096 85.5409 34.7296C85.7809 35.4496 86.9209 38.9896 87.3009 42.8596C90.2809 39.7896 92.8708 36.5096 93.4808 35.7196C100.311 27.4196 103.821 16.5997 103.141 5.68965L102.931 2.33968L99.6609 1.57967C93.2609 0.0996659 86.5109 0.0796268 80.1609 1.53963C76.2409 2.43963 72.5508 3.85967 69.1008 5.76967C63.6808 3.48967 57.7709 2.24965 51.6709 2.24965C45.5709 2.24965 39.6709 3.45967 34.1809 5.76967C30.7309 3.85967 27.0408 2.43963 23.1208 1.53963C16.7708 0.0796268 10.0308 0.0996659 3.62083 1.57967L0.350815 2.33968L0.140854 5.68965C-0.709146 19.4297 4.76087 32.3497 15.1609 41.1397C22.7309 47.5497 32.5509 50.9796 42.6809 50.9796C44.1609 50.9796 45.6408 50.8997 47.1208 50.7597C47.1208 50.8897 47.1208 51.0296 47.1308 51.1596C46.7208 60.6196 42.5008 69.3396 35.2508 75.4696C34.2508 76.3196 33.2008 77.0997 32.1208 77.8197C25.3308 73.4697 20.0308 66.8597 17.3508 58.8197C17.2108 58.4497 15.8809 54.7196 15.4109 50.6196C12.7109 53.4996 10.7808 55.9196 10.1308 56.7496C3.08084 65.1096 -0.549146 76.0796 0.140854 87.1696L0.350815 90.5197L3.62083 91.2797C6.95083 92.0497 10.2908 92.4296 13.5908 92.4296C20.0708 92.4296 26.4108 90.9697 32.1908 88.1397C38.1408 90.9797 44.7609 92.5396 51.6709 92.5396C58.5809 92.5396 65.1808 90.9797 71.1208 88.1497C73.9808 89.5397 77.0009 90.5997 80.1609 91.3297C83.3009 92.0497 86.5409 92.4096 89.7909 92.4096C93.0409 92.4096 96.4209 92.0296 99.6609 91.2896L102.931 90.5297L103.141 87.1796C103.551 80.6196 102.451 73.9697 99.9608 67.9497V67.9397ZM82.3109 58.5996C83.2909 59.4296 84.2208 60.3096 85.0808 61.2296C82.2008 68.1996 77.2909 73.9297 71.1809 77.8397C70.0909 77.1197 69.0409 76.3296 68.0209 75.4696C60.7809 69.3396 56.5609 60.6397 56.1409 51.1997C56.1409 51.1997 56.1409 51.1796 56.1409 51.1696C65.6909 49.9696 75.2609 52.6496 82.3009 58.5996H82.3109ZM94.1908 9.72963C93.9908 14.7896 92.6708 19.7197 90.3808 24.1497C87.3408 19.1097 83.3608 14.7496 78.7308 11.2896C83.6208 9.58963 88.8908 9.04964 94.1908 9.73964V9.72963ZM60.2608 12.2896C56.7008 15.6996 53.8009 19.6296 51.6509 23.9196C49.4909 19.6296 46.6009 15.6896 43.0309 12.2896C45.8309 11.5996 48.7309 11.2496 51.6809 11.2496C54.6309 11.2496 57.4908 11.6096 60.2608 12.2896ZM24.5808 11.2896C19.8508 14.8396 15.9109 19.2196 12.9209 24.2296C10.6009 19.8096 9.28082 14.8796 9.10082 9.72963C14.4108 9.03963 19.6808 9.58963 24.5808 11.2896ZM42.6709 41.9796C34.6609 41.9796 26.9208 39.2897 20.9908 34.2697C20.2408 33.6297 19.5208 32.9697 18.8308 32.2797C21.4808 26.5097 25.5908 21.5596 30.8408 17.8496C31.7408 17.2096 32.6608 16.6297 33.6108 16.0797C34.1708 16.4997 34.7309 16.9397 35.2709 17.3897C42.5109 23.5197 46.7309 32.2196 47.1509 41.6596C47.1509 41.6596 47.1509 41.6797 47.1509 41.6897C45.6509 41.8797 44.1609 41.9696 42.6709 41.9696V41.9796ZM9.10082 83.1397C9.29082 78.4597 10.4309 73.8896 12.4209 69.7196C15.1409 74.5096 18.6708 78.6997 22.8208 82.1397C18.4308 83.3997 13.7808 83.7497 9.11083 83.1397H9.10082ZM41.4009 82.0596C45.7209 78.3296 49.1709 73.8797 51.6509 68.9497C54.1309 73.8897 57.5909 78.3397 61.9109 82.0697C58.6509 83.0297 55.2109 83.5396 51.6809 83.5396C48.1509 83.5396 44.6809 83.0196 41.4009 82.0496V82.0596ZM80.5209 82.1497C84.6709 78.7097 88.2109 74.5196 90.9309 69.7396C92.9109 73.8696 94.0308 78.4197 94.2008 83.1397C89.5408 83.7497 84.9009 83.3997 80.5209 82.1497Z" fill="white"/>
</svg>
