<svg width="383" height="295" viewBox="0 0 383 295" fill="none" xmlns="http://www.w3.org/2000/svg">
<path d="M229.608 17.001V5.26764H231.244V17.001H229.608ZM226.053 6.68986V5.26764H234.799V6.68986H226.053ZM236.737 17.001V5.26764H240.826C241.418 5.26764 241.958 5.31505 242.444 5.40986C242.941 5.50468 243.38 5.6469 243.759 5.83653C244.15 6.02616 244.476 6.25727 244.737 6.52986C245.01 6.80246 245.211 7.12246 245.341 7.48986C245.484 7.85727 245.555 8.26024 245.555 8.69875C245.555 9.10172 245.49 9.47505 245.359 9.81875C245.241 10.1625 245.057 10.4647 244.808 10.7254C244.559 10.9862 244.251 11.1995 243.884 11.3654C243.516 11.5195 243.084 11.6321 242.586 11.7032V11.9165C243.024 11.9639 243.404 12.0765 243.724 12.2543C244.044 12.4321 244.316 12.6928 244.541 13.0365C244.778 13.3802 244.974 13.8306 245.128 14.3876L245.875 17.001H244.115L243.528 14.6188C243.41 14.1447 243.226 13.7595 242.977 13.4632C242.728 13.1551 242.414 12.9299 242.035 12.7876C241.655 12.6336 241.205 12.5565 240.684 12.5565H238.373V17.001H236.737ZM238.373 11.2232H240.701C241.744 11.2232 242.533 11.0336 243.066 10.6543C243.611 10.275 243.884 9.70023 243.884 8.92986C243.884 8.14764 243.623 7.5669 243.101 7.18764C242.592 6.80838 241.798 6.61875 240.719 6.61875H238.373V11.2232ZM247.287 17.001L251.411 5.26764H253.776L257.9 17.001H256.158L252.709 6.63653H252.496L249.047 17.001H247.287ZM249.243 14.3699V13.1254H256.158V14.3699H249.243ZM259.914 17.001V5.26764H262.101L268.27 14.8499H268.394L268.287 5.26764H269.87V17.001H267.878L261.55 7.18764H261.407L261.514 17.001H259.914ZM276.955 17.2321C276.184 17.2321 275.503 17.1491 274.91 16.9832C274.33 16.8173 273.838 16.5743 273.435 16.2543C273.044 15.9225 272.753 15.5195 272.564 15.0454C272.374 14.5713 272.291 14.0202 272.315 13.3921L273.79 13.0543C273.743 13.6943 273.844 14.2217 274.093 14.6365C274.341 15.0395 274.721 15.3476 275.23 15.561C275.74 15.7625 276.338 15.8632 277.026 15.8632C277.69 15.8632 278.247 15.7802 278.697 15.6143C279.159 15.4484 279.503 15.2173 279.728 14.921C279.965 14.6247 280.084 14.2869 280.084 13.9076C280.084 13.481 279.947 13.1432 279.675 12.8943C279.402 12.6454 279.035 12.4499 278.573 12.3076C278.122 12.1654 277.618 12.0351 277.061 11.9165C276.516 11.798 275.971 11.6676 275.426 11.5254C274.893 11.3713 274.407 11.1699 273.968 10.921C273.53 10.6721 273.18 10.3521 272.919 9.96098C272.658 9.55801 272.528 9.05431 272.528 8.44986C272.528 7.75061 272.7 7.14616 273.044 6.63653C273.399 6.1269 273.897 5.73579 274.537 5.4632C275.177 5.17875 275.924 5.03653 276.777 5.03653C277.642 5.03653 278.407 5.17283 279.07 5.44542C279.734 5.71801 280.261 6.12098 280.653 6.65431C281.044 7.17579 281.245 7.82764 281.257 8.60986L279.728 8.96542C279.74 8.53875 279.675 8.16542 279.533 7.84542C279.39 7.52542 279.183 7.25875 278.91 7.04542C278.65 6.83209 278.335 6.67209 277.968 6.56542C277.613 6.4469 277.21 6.38764 276.759 6.38764C276.226 6.38764 275.758 6.47061 275.355 6.63653C274.964 6.80246 274.655 7.02764 274.43 7.31209C274.205 7.59653 274.093 7.93431 274.093 8.32542C274.093 8.78764 274.253 9.15505 274.573 9.42764C274.893 9.68838 275.313 9.89579 275.835 10.0499C276.356 10.2039 276.913 10.3462 277.506 10.4765C278.015 10.5832 278.513 10.7136 278.999 10.8676C279.497 11.0099 279.947 11.2054 280.35 11.4543C280.753 11.6913 281.073 12.0054 281.31 12.3965C281.547 12.7876 281.666 13.2854 281.666 13.8899C281.666 14.5654 281.488 15.1521 281.133 15.6499C280.789 16.1476 280.267 16.5388 279.568 16.8232C278.869 17.0958 277.998 17.2321 276.955 17.2321ZM284.952 13.3921V12.0054H287.85C288.964 12.0054 289.805 11.7921 290.374 11.3654C290.943 10.9388 291.227 10.2395 291.227 9.26764C291.227 8.39061 290.961 7.73283 290.427 7.29431C289.906 6.84394 289.106 6.61875 288.027 6.61875H284.952V5.26764H288.063C288.821 5.26764 289.497 5.35653 290.09 5.53431C290.694 5.71209 291.204 5.97283 291.618 6.31653C292.033 6.64838 292.347 7.06912 292.561 7.57875C292.786 8.08838 292.898 8.67505 292.898 9.33875C292.898 10.2158 292.697 10.9565 292.294 11.561C291.891 12.1654 291.298 12.6217 290.516 12.9299C289.746 13.238 288.792 13.3921 287.654 13.3921H284.952ZM284.081 17.001V5.26764H285.716V17.001H284.081ZM293.311 17.001L297.436 5.26764H299.8L303.925 17.001H302.182L298.733 6.63653H298.52L295.071 17.001H293.311ZM295.267 14.3699V13.1254H302.182V14.3699H295.267ZM305.938 17.001V5.26764H310.027C310.62 5.26764 311.159 5.31505 311.645 5.40986C312.143 5.50468 312.581 5.6469 312.961 5.83653C313.352 6.02616 313.678 6.25727 313.938 6.52986C314.211 6.80246 314.412 7.12246 314.543 7.48986C314.685 7.85727 314.756 8.26024 314.756 8.69875C314.756 9.10172 314.691 9.47505 314.561 9.81875C314.442 10.1625 314.258 10.4647 314.009 10.7254C313.761 10.9862 313.452 11.1995 313.085 11.3654C312.718 11.5195 312.285 11.6321 311.787 11.7032V11.9165C312.226 11.9639 312.605 12.0765 312.925 12.2543C313.245 12.4321 313.518 12.6928 313.743 13.0365C313.98 13.3802 314.175 13.8306 314.329 14.3876L315.076 17.001H313.316L312.729 14.6188C312.611 14.1447 312.427 13.7595 312.178 13.4632C311.929 13.1551 311.615 12.9299 311.236 12.7876C310.857 12.6336 310.407 12.5565 309.885 12.5565H307.574V17.001H305.938ZM307.574 11.2232H309.903C310.946 11.2232 311.734 11.0336 312.267 10.6543C312.812 10.275 313.085 9.70023 313.085 8.92986C313.085 8.14764 312.824 7.5669 312.303 7.18764C311.793 6.80838 310.999 6.61875 309.921 6.61875H307.574V11.2232ZM317.449 17.001V5.26764H319.084V17.001H317.449ZM318.284 17.001V15.5965H325.68V17.001H318.284ZM318.284 11.6676V10.3521H324.827V11.6676H318.284ZM318.284 6.65431V5.26764H325.662V6.65431H318.284ZM327.848 17.001V5.26764H330.035L336.204 14.8499H336.328L336.221 5.26764H337.804V17.001H335.813L329.484 7.18764H329.341L329.448 17.001H327.848ZM345.76 17.2321C344.907 17.2321 344.148 17.1017 343.484 16.841C342.821 16.5684 342.258 16.1773 341.795 15.6676C341.333 15.158 340.978 14.5358 340.729 13.801C340.492 13.0662 340.373 12.2247 340.373 11.2765C340.373 10.3165 340.498 9.45727 340.747 8.69875C340.995 7.92838 341.351 7.27061 341.813 6.72542C342.275 6.18024 342.827 5.76542 343.467 5.48098C344.118 5.18468 344.847 5.03653 345.653 5.03653C346.281 5.03653 346.856 5.12542 347.378 5.3032C347.899 5.46912 348.35 5.71801 348.729 6.04986C349.12 6.38172 349.422 6.77875 349.635 7.24098C349.849 7.7032 349.955 8.21875 349.955 8.78764L348.427 9.17875C348.438 8.57431 348.314 8.07061 348.053 7.66764C347.792 7.26468 347.449 6.96246 347.022 6.76098C346.595 6.55949 346.127 6.45875 345.618 6.45875C345.155 6.45875 344.705 6.55357 344.267 6.7432C343.84 6.92098 343.461 7.20542 343.129 7.59653C342.797 7.97579 342.536 8.46764 342.347 9.07209C342.157 9.66468 342.062 10.3817 342.062 11.2232C342.062 12.2899 342.216 13.161 342.524 13.8365C342.832 14.5002 343.271 14.9921 343.84 15.3121C344.409 15.6202 345.067 15.7743 345.813 15.7743C346.536 15.7743 347.117 15.6439 347.555 15.3832C348.006 15.1106 348.338 14.7313 348.551 14.2454C348.764 13.7595 348.883 13.1965 348.907 12.5565L350.382 12.8232C350.37 13.4276 350.275 13.9965 350.098 14.5299C349.92 15.0632 349.647 15.5313 349.28 15.9343C348.912 16.3373 348.432 16.6573 347.84 16.8943C347.259 17.1195 346.566 17.2321 345.76 17.2321ZM355.137 17.001V13.2143L351.048 5.26764H352.95L355.919 11.6143H356.008L358.977 5.26764H360.861L356.772 13.1965V17.001H355.137ZM231.919 38.2321C231.066 38.2321 230.313 38.0899 229.662 37.8054C229.022 37.521 228.476 37.1121 228.026 36.5788C227.587 36.0454 227.256 35.4113 227.03 34.6765C226.805 33.9299 226.693 33.0943 226.693 32.1699C226.693 30.8188 226.918 29.6928 227.368 28.7921C227.819 27.8795 228.435 27.1921 229.217 26.7299C230.011 26.2676 230.918 26.0365 231.937 26.0365C232.731 26.0365 233.448 26.1728 234.088 26.4454C234.728 26.718 235.273 27.121 235.724 27.6543C236.186 28.1876 236.536 28.8395 236.773 29.6099C237.022 30.3684 237.146 31.2336 237.146 32.2054C237.146 33.118 237.033 33.9476 236.808 34.6943C236.583 35.4291 236.245 36.0632 235.795 36.5965C235.356 37.118 234.811 37.521 234.159 37.8054C233.519 38.0899 232.773 38.2321 231.919 38.2321ZM231.919 36.8276C232.69 36.8276 233.336 36.6499 233.857 36.2943C234.39 35.9269 234.793 35.4054 235.066 34.7299C235.339 34.0425 235.475 33.2069 235.475 32.2232C235.475 31.2276 235.333 30.3802 235.048 29.681C234.776 28.9699 234.367 28.4247 233.822 28.0454C233.288 27.6662 232.648 27.4765 231.902 27.4765C231.179 27.4765 230.55 27.6602 230.017 28.0276C229.484 28.395 229.075 28.9284 228.79 29.6276C228.506 30.3269 228.364 31.1802 228.364 32.1876C228.364 32.9343 228.441 33.598 228.595 34.1788C228.761 34.7476 228.992 35.2336 229.288 35.6365C229.596 36.0276 229.97 36.3239 230.408 36.5254C230.859 36.7269 231.362 36.8276 231.919 36.8276ZM239.723 38.001V26.2676H241.359V38.001H239.723ZM240.381 32.9876V31.5832H247.083V32.9876H240.381ZM240.381 27.7076V26.2676H247.865V27.7076H240.381ZM255.16 38.001V36.5965H258.627C259.433 36.5965 260.091 36.4128 260.6 36.0454C261.122 35.6662 261.513 35.1447 261.773 34.481C262.034 33.8173 262.165 33.0469 262.165 32.1699C262.165 31.3995 262.082 30.7358 261.916 30.1788C261.762 29.6099 261.519 29.1417 261.187 28.7743C260.855 28.4069 260.434 28.1343 259.925 27.9565C259.427 27.7669 258.834 27.6721 258.147 27.6721H255.16V26.2676H258.111C259.427 26.2676 260.505 26.4988 261.347 26.961C262.2 27.4232 262.828 28.0869 263.231 28.9521C263.634 29.8173 263.836 30.8484 263.836 32.0454C263.836 32.8513 263.747 33.5743 263.569 34.2143C263.403 34.8425 263.16 35.3995 262.84 35.8854C262.532 36.3595 262.159 36.7565 261.72 37.0765C261.293 37.3847 260.819 37.6158 260.298 37.7699C259.788 37.9239 259.243 38.001 258.662 38.001H255.16ZM254.289 38.001V26.2676H255.925V38.001H254.289ZM264.926 38.001L269.05 26.2676H271.415L275.539 38.001H273.797L270.348 27.6365H270.135L266.686 38.001H264.926ZM266.881 35.3699V34.1254H273.797V35.3699H266.881ZM278.844 38.001V26.2676H280.48V38.001H278.844ZM275.289 27.6899V26.2676H284.035V27.6899H275.289ZM283.78 38.001L287.904 26.2676H290.269L294.393 38.001H292.651L289.202 27.6365H288.989L285.54 38.001H283.78ZM285.736 35.3699V34.1254H292.651V35.3699H285.736ZM305.704 38.2321C304.851 38.2321 304.098 38.0899 303.446 37.8054C302.806 37.521 302.261 37.1121 301.811 36.5788C301.372 36.0454 301.04 35.4113 300.815 34.6765C300.59 33.9299 300.477 33.0943 300.477 32.1699C300.477 30.8188 300.703 29.6928 301.153 28.7921C301.603 27.8795 302.22 27.1921 303.002 26.7299C303.796 26.2676 304.703 26.0365 305.722 26.0365C306.516 26.0365 307.233 26.1728 307.873 26.4454C308.513 26.718 309.058 27.121 309.509 27.6543C309.971 28.1876 310.32 28.8395 310.557 29.6099C310.806 30.3684 310.931 31.2336 310.931 32.2054C310.931 33.118 310.818 33.9476 310.593 34.6943C310.368 35.4291 310.03 36.0632 309.58 36.5965C309.141 37.118 308.596 37.521 307.944 37.8054C307.304 38.0899 306.557 38.2321 305.704 38.2321ZM305.704 36.8276C306.474 36.8276 307.12 36.6499 307.642 36.2943C308.175 35.9269 308.578 35.4054 308.851 34.7299C309.123 34.0425 309.26 33.2069 309.26 32.2232C309.26 31.2276 309.117 30.3802 308.833 29.681C308.56 28.9699 308.151 28.4247 307.606 28.0454C307.073 27.6662 306.433 27.4765 305.686 27.4765C304.963 27.4765 304.335 27.6602 303.802 28.0276C303.269 28.395 302.86 28.9284 302.575 29.6276C302.291 30.3269 302.149 31.1802 302.149 32.1876C302.149 32.9343 302.226 33.598 302.38 34.1788C302.546 34.7476 302.777 35.2336 303.073 35.6365C303.381 36.0276 303.754 36.3239 304.193 36.5254C304.643 36.7269 305.147 36.8276 305.704 36.8276ZM313.508 38.001V26.2676H317.597C318.189 26.2676 318.729 26.315 319.214 26.4099C319.712 26.5047 320.151 26.6469 320.53 26.8365C320.921 27.0262 321.247 27.2573 321.508 27.5299C321.78 27.8025 321.982 28.1225 322.112 28.4899C322.254 28.8573 322.326 29.2602 322.326 29.6988C322.326 30.1017 322.26 30.475 322.13 30.8188C322.012 31.1625 321.828 31.4647 321.579 31.7254C321.33 31.9862 321.022 32.1995 320.654 32.3654C320.287 32.5195 319.854 32.6321 319.357 32.7032V32.9165C319.795 32.9639 320.174 33.0765 320.494 33.2543C320.814 33.4321 321.087 33.6928 321.312 34.0365C321.549 34.3802 321.745 34.8306 321.899 35.3876L322.646 38.001H320.886L320.299 35.6188C320.18 35.1447 319.997 34.7595 319.748 34.4632C319.499 34.1551 319.185 33.9299 318.806 33.7876C318.426 33.6336 317.976 33.5565 317.454 33.5565H315.143V38.001H313.508ZM315.143 32.2232H317.472C318.515 32.2232 319.303 32.0336 319.837 31.6543C320.382 31.275 320.654 30.7002 320.654 29.9299C320.654 29.1476 320.394 28.5669 319.872 28.1876C319.363 27.8084 318.569 27.6188 317.49 27.6188H315.143V32.2232ZM325.018 38.001V26.2676H326.689V38.001H325.018ZM334.24 38.2321C333.28 38.2321 332.421 38.0128 331.662 37.5743C330.915 37.1239 330.329 36.4543 329.902 35.5654C329.475 34.6647 329.262 33.5388 329.262 32.1876C329.262 31.2395 329.381 30.3862 329.618 29.6276C329.855 28.8691 330.198 28.2232 330.649 27.6899C331.111 27.1565 331.674 26.7476 332.338 26.4632C333.001 26.1788 333.772 26.0365 334.649 26.0365C335.289 26.0365 335.87 26.1195 336.391 26.2854C336.924 26.4513 337.387 26.6884 337.778 26.9965C338.181 27.3047 338.501 27.6839 338.738 28.1343C338.975 28.5847 339.123 29.1002 339.182 29.681L337.618 30.1254C337.57 29.4736 337.398 28.958 337.102 28.5788C336.818 28.1876 336.456 27.9032 336.018 27.7254C335.579 27.5476 335.105 27.4588 334.595 27.4588C333.884 27.4588 333.256 27.6188 332.711 27.9388C332.166 28.2588 331.739 28.7684 331.431 29.4676C331.123 30.155 330.969 31.0499 330.969 32.1521C330.969 33.0173 331.064 33.7462 331.253 34.3388C331.443 34.9313 331.698 35.4113 332.018 35.7788C332.338 36.1343 332.711 36.3951 333.138 36.561C333.576 36.7151 334.038 36.7921 334.524 36.7921C335.152 36.7921 335.692 36.6736 336.142 36.4365C336.592 36.1995 336.954 35.8439 337.227 35.3699C337.511 34.8839 337.683 34.2736 337.742 33.5388H335.093V32.241H339.36V34.001L339.378 38.001H338.027L338.364 34.801H338.115C337.95 35.5595 337.707 36.1936 337.387 36.7032C337.067 37.2128 336.646 37.598 336.124 37.8588C335.603 38.1076 334.975 38.2321 334.24 38.2321ZM342.032 38.001V26.2676H343.703V38.001H342.032ZM346.685 38.001V26.2676H348.872L355.04 35.8499H355.165L355.058 26.2676H356.64V38.001H354.649L348.32 28.1876H348.178L348.285 38.001H346.685ZM229.608 101.001V89.2676H231.244V101.001H229.608ZM226.053 90.6899V89.2676H234.799V90.6899H226.053ZM236.737 101.001V89.2676H240.826C241.418 89.2676 241.958 89.315 242.444 89.4099C242.941 89.5047 243.38 89.6469 243.759 89.8365C244.15 90.0262 244.476 90.2573 244.737 90.5299C245.01 90.8025 245.211 91.1225 245.341 91.4899C245.484 91.8573 245.555 92.2602 245.555 92.6988C245.555 93.1017 245.49 93.475 245.359 93.8188C245.241 94.1625 245.057 94.4647 244.808 94.7254C244.559 94.9862 244.251 95.1995 243.884 95.3654C243.516 95.5195 243.084 95.6321 242.586 95.7032V95.9165C243.024 95.9639 243.404 96.0765 243.724 96.2543C244.044 96.4321 244.316 96.6928 244.541 97.0365C244.778 97.3802 244.974 97.8306 245.128 98.3876L245.875 101.001H244.115L243.528 98.6188C243.41 98.1447 243.226 97.7595 242.977 97.4632C242.728 97.1551 242.414 96.9299 242.035 96.7876C241.655 96.6336 241.205 96.5565 240.684 96.5565H238.373V101.001H236.737ZM238.373 95.2232H240.701C241.744 95.2232 242.533 95.0336 243.066 94.6543C243.611 94.275 243.884 93.7002 243.884 92.9299C243.884 92.1476 243.623 91.5669 243.101 91.1876C242.592 90.8084 241.798 90.6188 240.719 90.6188H238.373V95.2232ZM247.287 101.001L251.411 89.2676H253.776L257.9 101.001H256.158L252.709 90.6365H252.496L249.047 101.001H247.287ZM249.243 98.3699V97.1254H256.158V98.3699H249.243ZM264.423 101.232C263.57 101.232 262.811 101.102 262.148 100.841C261.484 100.568 260.921 100.177 260.459 99.6676C259.996 99.158 259.641 98.5358 259.392 97.801C259.155 97.0662 259.036 96.2247 259.036 95.2765C259.036 94.3165 259.161 93.4573 259.41 92.6988C259.659 91.9284 260.014 91.2706 260.476 90.7254C260.939 90.1802 261.49 89.7654 262.13 89.481C262.782 89.1847 263.51 89.0365 264.316 89.0365C264.945 89.0365 265.519 89.1254 266.041 89.3032C266.562 89.4691 267.013 89.718 267.392 90.0499C267.783 90.3817 268.085 90.7788 268.299 91.241C268.512 91.7032 268.619 92.2188 268.619 92.7876L267.09 93.1788C267.102 92.5743 266.977 92.0706 266.716 91.6676C266.456 91.2647 266.112 90.9625 265.685 90.761C265.259 90.5595 264.79 90.4588 264.281 90.4588C263.819 90.4588 263.368 90.5536 262.93 90.7432C262.503 90.921 262.124 91.2054 261.792 91.5965C261.46 91.9758 261.199 92.4676 261.01 93.0721C260.82 93.6647 260.725 94.3817 260.725 95.2232C260.725 96.2899 260.879 97.161 261.188 97.8365C261.496 98.5002 261.934 98.9921 262.503 99.3121C263.072 99.6202 263.73 99.7743 264.476 99.7743C265.199 99.7743 265.78 99.6439 266.219 99.3832C266.669 99.1106 267.001 98.7313 267.214 98.2454C267.428 97.7595 267.546 97.1965 267.57 96.5565L269.045 96.8232C269.033 97.4276 268.939 97.9965 268.761 98.5299C268.583 99.0632 268.31 99.5313 267.943 99.9343C267.576 100.337 267.096 100.657 266.503 100.894C265.922 101.119 265.229 101.232 264.423 101.232ZM271.251 101.001V89.2676H272.886V101.001H271.251ZM272.086 101.001V99.5965H279.482V101.001H272.086ZM272.086 95.6676V94.3521H278.629V95.6676H272.086ZM272.086 90.6543V89.2676H279.464V90.6543H272.086ZM280.933 101.001L285.057 89.2676H287.422L291.546 101.001H289.804L286.355 90.6365H286.142L282.693 101.001H280.933ZM282.888 98.3699V97.1254H289.804V98.3699H282.888ZM293.56 101.001V89.2676H297.862C298.526 89.2676 299.124 89.3269 299.658 89.4454C300.191 89.5639 300.647 89.7476 301.027 89.9965C301.406 90.2454 301.696 90.5654 301.898 90.9565C302.111 91.3358 302.218 91.798 302.218 92.3432C302.218 92.7936 302.129 93.1906 301.951 93.5343C301.773 93.878 301.489 94.1625 301.098 94.3876C300.707 94.601 300.197 94.761 299.569 94.8676V95.0632C300.659 95.158 301.447 95.4543 301.933 95.9521C302.431 96.438 302.68 97.0899 302.68 97.9076C302.68 98.5713 302.526 99.1343 302.218 99.5965C301.91 100.047 301.43 100.397 300.778 100.645C300.126 100.882 299.296 101.001 298.289 101.001H293.56ZM295.142 99.6143H298.431C299.32 99.6143 299.984 99.4662 300.422 99.1699C300.861 98.8617 301.08 98.3936 301.08 97.7654C301.08 97.0425 300.778 96.5032 300.173 96.1476C299.581 95.7802 298.686 95.5965 297.489 95.5965H295.142V99.6143ZM295.142 94.3876H297.169C298.33 94.3876 299.19 94.2336 299.747 93.9254C300.315 93.6054 300.6 93.1313 300.6 92.5032C300.6 91.875 300.351 91.4069 299.853 91.0988C299.367 90.7906 298.632 90.6365 297.649 90.6365H295.142V94.3876ZM305.174 101.001V89.2676H306.81V101.001H305.174ZM305.708 101.001V99.5788H312.286V101.001H305.708ZM314.133 101.001V89.2676H315.768V101.001H314.133ZM314.968 101.001V99.5965H322.364V101.001H314.968ZM314.968 95.6676V94.3521H321.511V95.6676H314.968ZM314.968 90.6543V89.2676H322.346V90.6543H314.968ZM333.989 101.232C333.136 101.232 332.377 101.102 331.714 100.841C331.05 100.568 330.487 100.177 330.025 99.6676C329.562 99.158 329.207 98.5358 328.958 97.801C328.721 97.0662 328.602 96.2247 328.602 95.2765C328.602 94.3165 328.727 93.4573 328.976 92.6988C329.225 91.9284 329.58 91.2706 330.042 90.7254C330.505 90.1802 331.056 89.7654 331.696 89.481C332.348 89.1847 333.076 89.0365 333.882 89.0365C334.511 89.0365 335.085 89.1254 335.607 89.3032C336.128 89.4691 336.579 89.718 336.958 90.0499C337.349 90.3817 337.651 90.7788 337.865 91.241C338.078 91.7032 338.185 92.2188 338.185 92.7876L336.656 93.1788C336.668 92.5743 336.543 92.0706 336.282 91.6676C336.022 91.2647 335.678 90.9625 335.251 90.761C334.825 90.5595 334.356 90.4588 333.847 90.4588C333.385 90.4588 332.934 90.5536 332.496 90.7432C332.069 90.921 331.69 91.2054 331.358 91.5965C331.026 91.9758 330.765 92.4676 330.576 93.0721C330.386 93.6647 330.291 94.3817 330.291 95.2232C330.291 96.2899 330.445 97.161 330.754 97.8365C331.062 98.5002 331.5 98.9921 332.069 99.3121C332.638 99.6202 333.296 99.7743 334.042 99.7743C334.765 99.7743 335.346 99.6439 335.785 99.3832C336.235 99.1106 336.567 98.7313 336.78 98.2454C336.994 97.7595 337.112 97.1965 337.136 96.5565L338.611 96.8232C338.599 97.4276 338.505 97.9965 338.327 98.5299C338.149 99.0632 337.876 99.5313 337.509 99.9343C337.142 100.337 336.662 100.657 336.069 100.894C335.488 101.119 334.795 101.232 333.989 101.232ZM348.604 101.001V89.2676H350.221V101.001H348.604ZM340.817 101.001V89.2676H342.452V101.001H340.817ZM341.635 95.7032V94.3165H349.261V95.7032H341.635ZM352.252 101.001L356.377 89.2676H358.741L362.866 101.001H361.123L357.674 90.6365H357.461L354.012 101.001H352.252ZM354.208 98.3699V97.1254H361.123V98.3699H354.208ZM364.879 101.001V89.2676H366.55V101.001H364.879ZM369.532 101.001V89.2676H371.719L377.888 98.8499H378.012L377.905 89.2676H379.488V101.001H377.497L371.168 91.1876H371.025L371.132 101.001H369.532ZM231.919 122.232C231.066 122.232 230.313 122.09 229.662 121.805C229.022 121.521 228.476 121.112 228.026 120.579C227.587 120.045 227.256 119.411 227.03 118.677C226.805 117.93 226.693 117.094 226.693 116.17C226.693 114.819 226.918 113.693 227.368 112.792C227.819 111.879 228.435 111.192 229.217 110.73C230.011 110.268 230.918 110.037 231.937 110.037C232.731 110.037 233.448 110.173 234.088 110.445C234.728 110.718 235.273 111.121 235.724 111.654C236.186 112.188 236.536 112.839 236.773 113.61C237.022 114.368 237.146 115.234 237.146 116.205C237.146 117.118 237.033 117.948 236.808 118.694C236.583 119.429 236.245 120.063 235.795 120.597C235.356 121.118 234.811 121.521 234.159 121.805C233.519 122.09 232.773 122.232 231.919 122.232ZM231.919 120.828C232.69 120.828 233.336 120.65 233.857 120.294C234.39 119.927 234.793 119.405 235.066 118.73C235.339 118.042 235.475 117.207 235.475 116.223C235.475 115.228 235.333 114.38 235.048 113.681C234.776 112.97 234.367 112.425 233.822 112.045C233.288 111.666 232.648 111.477 231.902 111.477C231.179 111.477 230.55 111.66 230.017 112.028C229.484 112.395 229.075 112.928 228.79 113.628C228.506 114.327 228.364 115.18 228.364 116.188C228.364 116.934 228.441 117.598 228.595 118.179C228.761 118.748 228.992 119.234 229.288 119.637C229.596 120.028 229.97 120.324 230.408 120.525C230.859 120.727 231.362 120.828 231.919 120.828ZM239.723 122.001V110.268H241.359V122.001H239.723ZM240.381 116.988V115.583H247.083V116.988H240.381ZM240.381 111.708V110.268H247.865V111.708H240.381ZM255.16 122.001V120.597H258.627C259.433 120.597 260.091 120.413 260.6 120.045C261.122 119.666 261.513 119.145 261.773 118.481C262.034 117.817 262.165 117.047 262.165 116.17C262.165 115.399 262.082 114.736 261.916 114.179C261.762 113.61 261.519 113.142 261.187 112.774C260.855 112.407 260.434 112.134 259.925 111.957C259.427 111.767 258.834 111.672 258.147 111.672H255.16V110.268H258.111C259.427 110.268 260.505 110.499 261.347 110.961C262.2 111.423 262.828 112.087 263.231 112.952C263.634 113.817 263.836 114.848 263.836 116.045C263.836 116.851 263.747 117.574 263.569 118.214C263.403 118.842 263.16 119.399 262.84 119.885C262.532 120.359 262.159 120.757 261.72 121.077C261.293 121.385 260.819 121.616 260.298 121.77C259.788 121.924 259.243 122.001 258.662 122.001H255.16ZM254.289 122.001V110.268H255.925V122.001H254.289ZM266.39 122.001V110.268H268.061V122.001H266.39ZM275.149 122.232C274.379 122.232 273.697 122.149 273.105 121.983C272.524 121.817 272.032 121.574 271.629 121.254C271.238 120.922 270.948 120.519 270.758 120.045C270.568 119.571 270.485 119.02 270.509 118.392L271.985 118.054C271.937 118.694 272.038 119.222 272.287 119.637C272.536 120.039 272.915 120.348 273.425 120.561C273.934 120.762 274.533 120.863 275.22 120.863C275.884 120.863 276.441 120.78 276.891 120.614C277.354 120.448 277.697 120.217 277.923 119.921C278.16 119.625 278.278 119.287 278.278 118.908C278.278 118.481 278.142 118.143 277.869 117.894C277.597 117.645 277.229 117.45 276.767 117.308C276.317 117.165 275.813 117.035 275.256 116.917C274.711 116.798 274.165 116.668 273.62 116.525C273.087 116.371 272.601 116.17 272.163 115.921C271.724 115.672 271.374 115.352 271.114 114.961C270.853 114.558 270.723 114.054 270.723 113.45C270.723 112.751 270.894 112.146 271.238 111.637C271.594 111.127 272.091 110.736 272.731 110.463C273.371 110.179 274.118 110.037 274.971 110.037C275.837 110.037 276.601 110.173 277.265 110.445C277.928 110.718 278.456 111.121 278.847 111.654C279.238 112.176 279.44 112.828 279.451 113.61L277.923 113.965C277.934 113.539 277.869 113.165 277.727 112.845C277.585 112.525 277.377 112.259 277.105 112.045C276.844 111.832 276.53 111.672 276.163 111.565C275.807 111.447 275.404 111.388 274.954 111.388C274.42 111.388 273.952 111.471 273.549 111.637C273.158 111.802 272.85 112.028 272.625 112.312C272.4 112.597 272.287 112.934 272.287 113.325C272.287 113.788 272.447 114.155 272.767 114.428C273.087 114.688 273.508 114.896 274.029 115.05C274.551 115.204 275.108 115.346 275.7 115.477C276.21 115.583 276.708 115.714 277.194 115.868C277.691 116.01 278.142 116.205 278.545 116.454C278.948 116.691 279.268 117.005 279.505 117.397C279.742 117.788 279.86 118.285 279.86 118.89C279.86 119.565 279.683 120.152 279.327 120.65C278.983 121.148 278.462 121.539 277.763 121.823C277.063 122.096 276.192 122.232 275.149 122.232ZM287.201 122.232C286.348 122.232 285.589 122.102 284.925 121.841C284.262 121.568 283.699 121.177 283.236 120.668C282.774 120.158 282.419 119.536 282.17 118.801C281.933 118.066 281.814 117.225 281.814 116.277C281.814 115.317 281.939 114.457 282.188 113.699C282.436 112.928 282.792 112.271 283.254 111.725C283.716 111.18 284.268 110.765 284.908 110.481C285.559 110.185 286.288 110.037 287.094 110.037C287.722 110.037 288.297 110.125 288.819 110.303C289.34 110.469 289.79 110.718 290.17 111.05C290.561 111.382 290.863 111.779 291.076 112.241C291.29 112.703 291.396 113.219 291.396 113.788L289.868 114.179C289.879 113.574 289.755 113.071 289.494 112.668C289.233 112.265 288.89 111.962 288.463 111.761C288.036 111.559 287.568 111.459 287.059 111.459C286.596 111.459 286.146 111.554 285.708 111.743C285.281 111.921 284.902 112.205 284.57 112.597C284.238 112.976 283.977 113.468 283.788 114.072C283.598 114.665 283.503 115.382 283.503 116.223C283.503 117.29 283.657 118.161 283.965 118.837C284.273 119.5 284.712 119.992 285.281 120.312C285.85 120.62 286.508 120.774 287.254 120.774C287.977 120.774 288.558 120.644 288.996 120.383C289.447 120.111 289.779 119.731 289.992 119.245C290.205 118.759 290.324 118.197 290.348 117.557L291.823 117.823C291.811 118.428 291.716 118.997 291.539 119.53C291.361 120.063 291.088 120.531 290.721 120.934C290.353 121.337 289.873 121.657 289.281 121.894C288.7 122.119 288.007 122.232 287.201 122.232ZM298.846 122.232C297.993 122.232 297.24 122.09 296.589 121.805C295.949 121.521 295.403 121.112 294.953 120.579C294.515 120.045 294.183 119.411 293.958 118.677C293.732 117.93 293.62 117.094 293.62 116.17C293.62 114.819 293.845 113.693 294.295 112.792C294.746 111.879 295.362 111.192 296.144 110.73C296.938 110.268 297.845 110.037 298.864 110.037C299.658 110.037 300.375 110.173 301.015 110.445C301.655 110.718 302.2 111.121 302.651 111.654C303.113 112.188 303.463 112.839 303.7 113.61C303.949 114.368 304.073 115.234 304.073 116.205C304.073 117.118 303.96 117.948 303.735 118.694C303.51 119.429 303.172 120.063 302.722 120.597C302.283 121.118 301.738 121.521 301.086 121.805C300.446 122.09 299.7 122.232 298.846 122.232ZM298.846 120.828C299.617 120.828 300.263 120.65 300.784 120.294C301.318 119.927 301.72 119.405 301.993 118.73C302.266 118.042 302.402 117.207 302.402 116.223C302.402 115.228 302.26 114.38 301.975 113.681C301.703 112.97 301.294 112.425 300.749 112.045C300.215 111.666 299.575 111.477 298.829 111.477C298.106 111.477 297.478 111.66 296.944 112.028C296.411 112.395 296.002 112.928 295.718 113.628C295.433 114.327 295.291 115.18 295.291 116.188C295.291 116.934 295.368 117.598 295.522 118.179C295.688 118.748 295.919 119.234 296.215 119.637C296.523 120.028 296.897 120.324 297.335 120.525C297.786 120.727 298.289 120.828 298.846 120.828ZM309.257 122.001L305.204 110.268H306.981L310.341 120.543H310.519L313.915 110.268H315.657L311.568 122.001H309.257ZM317.692 122.001V110.268H319.327V122.001H317.692ZM318.527 122.001V120.597H325.923V122.001H318.527ZM318.527 116.668V115.352H325.07V116.668H318.527ZM318.527 111.654V110.268H325.905V111.654H318.527ZM328.091 122.001V110.268H332.18C332.773 110.268 333.312 110.315 333.798 110.41C334.296 110.505 334.734 110.647 335.113 110.837C335.504 111.026 335.83 111.257 336.091 111.53C336.364 111.802 336.565 112.122 336.696 112.49C336.838 112.857 336.909 113.26 336.909 113.699C336.909 114.102 336.844 114.475 336.713 114.819C336.595 115.162 336.411 115.465 336.162 115.725C335.913 115.986 335.605 116.199 335.238 116.365C334.87 116.519 334.438 116.632 333.94 116.703V116.917C334.379 116.964 334.758 117.077 335.078 117.254C335.398 117.432 335.67 117.693 335.896 118.037C336.133 118.38 336.328 118.831 336.482 119.388L337.229 122.001H335.469L334.882 119.619C334.764 119.145 334.58 118.759 334.331 118.463C334.082 118.155 333.768 117.93 333.389 117.788C333.01 117.634 332.559 117.557 332.038 117.557H329.727V122.001H328.091ZM329.727 116.223H332.056C333.099 116.223 333.887 116.034 334.42 115.654C334.965 115.275 335.238 114.7 335.238 113.93C335.238 113.148 334.977 112.567 334.456 112.188C333.946 111.808 333.152 111.619 332.073 111.619H329.727V116.223ZM342.168 122.001V118.214L338.079 110.268H339.981L342.95 116.614H343.039L346.008 110.268H347.892L343.803 118.197V122.001H342.168ZM227.102 185.001V173.268H228.737V185.001H227.102ZM227.635 185.001V183.579H234.213V185.001H227.635ZM236.06 185.001V173.268H237.731V185.001H236.06ZM240.713 185.001V173.268H243.255L247.113 183.277H247.202L251.059 173.268H253.495V185.001H251.93L252.055 174.921H251.913L247.895 185.001H246.295L242.313 174.903H242.188L242.277 185.001H240.713ZM256.477 185.001V173.268H258.148V185.001H256.477ZM263.636 185.001V173.268H265.272V185.001H263.636ZM260.08 174.69V173.268H268.827V174.69H260.08ZM270.765 185.001V173.268H272.4V185.001H270.765ZM271.298 185.001V183.579H277.876V185.001H271.298ZM279.723 185.001V173.268H281.359V185.001H279.723ZM280.559 185.001V183.597H287.954V185.001H280.559ZM280.559 179.668V178.352H287.101V179.668H280.559ZM280.559 174.654V173.268H287.936V174.654H280.559ZM294.16 185.232C293.389 185.232 292.708 185.149 292.115 184.983C291.534 184.817 291.043 184.574 290.64 184.254C290.248 183.922 289.958 183.519 289.768 183.045C289.579 182.571 289.496 182.02 289.52 181.392L290.995 181.054C290.948 181.694 291.048 182.222 291.297 182.637C291.546 183.039 291.926 183.348 292.435 183.561C292.945 183.762 293.543 183.863 294.231 183.863C294.894 183.863 295.451 183.78 295.902 183.614C296.364 183.448 296.708 183.217 296.933 182.921C297.17 182.625 297.288 182.287 297.288 181.908C297.288 181.481 297.152 181.143 296.88 180.894C296.607 180.645 296.24 180.45 295.777 180.308C295.327 180.165 294.823 180.035 294.266 179.917C293.721 179.798 293.176 179.668 292.631 179.525C292.097 179.371 291.611 179.17 291.173 178.921C290.734 178.672 290.385 178.352 290.124 177.961C289.863 177.558 289.733 177.054 289.733 176.45C289.733 175.751 289.905 175.146 290.248 174.637C290.604 174.127 291.102 173.736 291.742 173.463C292.382 173.179 293.128 173.037 293.982 173.037C294.847 173.037 295.611 173.173 296.275 173.445C296.939 173.718 297.466 174.121 297.857 174.654C298.248 175.176 298.45 175.828 298.462 176.61L296.933 176.965C296.945 176.539 296.88 176.165 296.737 175.845C296.595 175.525 296.388 175.259 296.115 175.045C295.854 174.832 295.54 174.672 295.173 174.565C294.817 174.447 294.414 174.388 293.964 174.388C293.431 174.388 292.963 174.471 292.56 174.637C292.168 174.802 291.86 175.028 291.635 175.312C291.41 175.597 291.297 175.934 291.297 176.325C291.297 176.788 291.457 177.155 291.777 177.428C292.097 177.688 292.518 177.896 293.04 178.05C293.561 178.204 294.118 178.346 294.711 178.477C295.22 178.583 295.718 178.714 296.204 178.868C296.702 179.01 297.152 179.205 297.555 179.454C297.958 179.691 298.278 180.005 298.515 180.397C298.752 180.788 298.871 181.285 298.871 181.89C298.871 182.565 298.693 183.152 298.337 183.65C297.994 184.148 297.472 184.539 296.773 184.823C296.074 185.096 295.203 185.232 294.16 185.232ZM305.583 185.232C304.813 185.232 304.131 185.149 303.539 184.983C302.958 184.817 302.466 184.574 302.063 184.254C301.672 183.922 301.382 183.519 301.192 183.045C301.002 182.571 300.92 182.02 300.943 181.392L302.419 181.054C302.371 181.694 302.472 182.222 302.721 182.637C302.97 183.039 303.349 183.348 303.859 183.561C304.368 183.762 304.967 183.863 305.654 183.863C306.318 183.863 306.875 183.78 307.325 183.614C307.788 183.448 308.131 183.217 308.357 182.921C308.594 182.625 308.712 182.287 308.712 181.908C308.712 181.481 308.576 181.143 308.303 180.894C308.031 180.645 307.663 180.45 307.201 180.308C306.751 180.165 306.247 180.035 305.69 179.917C305.145 179.798 304.6 179.668 304.054 179.525C303.521 179.371 303.035 179.17 302.597 178.921C302.158 178.672 301.808 178.352 301.548 177.961C301.287 177.558 301.157 177.054 301.157 176.45C301.157 175.751 301.328 175.146 301.672 174.637C302.028 174.127 302.525 173.736 303.165 173.463C303.805 173.179 304.552 173.037 305.405 173.037C306.271 173.037 307.035 173.173 307.699 173.445C308.362 173.718 308.89 174.121 309.281 174.654C309.672 175.176 309.874 175.828 309.885 176.61L308.357 176.965C308.368 176.539 308.303 176.165 308.161 175.845C308.019 175.525 307.811 175.259 307.539 175.045C307.278 174.832 306.964 174.672 306.597 174.565C306.241 174.447 305.838 174.388 305.388 174.388C304.854 174.388 304.386 174.471 303.983 174.637C303.592 174.802 303.284 175.028 303.059 175.312C302.834 175.597 302.721 175.934 302.721 176.325C302.721 176.788 302.881 177.155 303.201 177.428C303.521 177.688 303.942 177.896 304.463 178.05C304.985 178.204 305.542 178.346 306.134 178.477C306.644 178.583 307.142 178.714 307.628 178.868C308.125 179.01 308.576 179.205 308.979 179.454C309.382 179.691 309.702 180.005 309.939 180.397C310.176 180.788 310.294 181.285 310.294 181.89C310.294 182.565 310.117 183.152 309.761 183.65C309.417 184.148 308.896 184.539 308.197 184.823C307.497 185.096 306.626 185.232 305.583 185.232ZM327.144 187.419C326.397 187.549 325.751 187.632 325.206 187.668C324.673 187.703 324.193 187.703 323.766 187.668C323.339 187.632 322.913 187.579 322.486 187.508C322.059 187.448 321.597 187.383 321.099 187.312C320.602 187.241 320.015 187.182 319.339 187.134C318.676 187.099 317.87 187.093 316.922 187.117V185.677C317.348 185.688 317.775 185.688 318.202 185.677C318.628 185.665 319.049 185.641 319.464 185.605C319.891 185.57 320.305 185.511 320.708 185.428C321.123 185.357 321.526 185.256 321.917 185.125C322.308 184.995 322.682 184.835 323.037 184.645V184.414C322.255 184.651 321.538 184.746 320.886 184.699C320.234 184.651 319.654 184.485 319.144 184.201C318.634 183.905 318.208 183.514 317.864 183.028C317.52 182.53 317.254 181.949 317.064 181.285C316.874 180.622 316.779 179.893 316.779 179.099C316.779 178.21 316.892 177.398 317.117 176.663C317.354 175.928 317.698 175.288 318.148 174.743C318.599 174.198 319.15 173.777 319.802 173.481C320.454 173.185 321.2 173.037 322.042 173.037C323.108 173.037 324.033 173.279 324.815 173.765C325.609 174.251 326.219 174.951 326.646 175.863C327.073 176.764 327.286 177.86 327.286 179.152C327.286 180.124 327.162 180.977 326.913 181.712C326.664 182.435 326.285 183.057 325.775 183.579C325.277 184.1 324.643 184.545 323.873 184.912C323.102 185.279 322.202 185.594 321.171 185.854V186.05C321.739 186.109 322.255 186.162 322.717 186.21C323.191 186.257 323.654 186.281 324.104 186.281C324.554 186.293 325.022 186.275 325.508 186.228C325.994 186.18 326.539 186.097 327.144 185.979V187.419ZM322.059 183.792C322.842 183.792 323.499 183.614 324.033 183.259C324.566 182.903 324.963 182.382 325.224 181.694C325.497 180.995 325.633 180.159 325.633 179.188C325.633 178.168 325.491 177.309 325.206 176.61C324.922 175.911 324.507 175.383 323.962 175.028C323.428 174.66 322.777 174.477 322.006 174.477C321.248 174.477 320.602 174.66 320.068 175.028C319.535 175.395 319.132 175.928 318.859 176.628C318.587 177.315 318.451 178.162 318.451 179.17C318.451 180.177 318.593 181.031 318.877 181.73C319.162 182.417 319.571 182.933 320.104 183.277C320.649 183.62 321.301 183.792 322.059 183.792ZM334.697 185.232C334.057 185.232 333.476 185.161 332.955 185.019C332.433 184.888 331.977 184.693 331.586 184.432C331.195 184.159 330.869 183.834 330.608 183.454C330.347 183.075 330.146 182.642 330.004 182.157C329.873 181.671 329.808 181.131 329.808 180.539V173.268H331.444V180.468C331.444 181.179 331.562 181.777 331.799 182.263C332.048 182.749 332.416 183.117 332.902 183.365C333.387 183.614 333.986 183.739 334.697 183.739C335.42 183.739 336.019 183.62 336.493 183.383C336.979 183.134 337.34 182.767 337.577 182.281C337.826 181.783 337.95 181.179 337.95 180.468V173.268H339.586V180.539C339.586 182.032 339.165 183.188 338.324 184.005C337.494 184.823 336.285 185.232 334.697 185.232ZM342.483 185.001V173.268H344.119V185.001H342.483ZM343.319 185.001V183.597H350.715V185.001H343.319ZM343.319 179.668V178.352H349.861V179.668H343.319ZM343.319 174.654V173.268H350.697V174.654H343.319ZM352.883 185.001V173.268H356.972C357.564 173.268 358.104 173.315 358.589 173.41C359.087 173.505 359.526 173.647 359.905 173.837C360.296 174.026 360.622 174.257 360.883 174.53C361.155 174.802 361.357 175.122 361.487 175.49C361.629 175.857 361.701 176.26 361.701 176.699C361.701 177.102 361.635 177.475 361.505 177.819C361.387 178.162 361.203 178.465 360.954 178.725C360.705 178.986 360.397 179.199 360.029 179.365C359.662 179.519 359.229 179.632 358.732 179.703V179.917C359.17 179.964 359.549 180.077 359.869 180.254C360.189 180.432 360.462 180.693 360.687 181.037C360.924 181.38 361.12 181.831 361.274 182.388L362.021 185.001H360.261L359.674 182.619C359.555 182.145 359.372 181.759 359.123 181.463C358.874 181.155 358.56 180.93 358.181 180.788C357.801 180.634 357.351 180.557 356.829 180.557H354.518V185.001H352.883ZM354.518 179.223H356.847C357.89 179.223 358.678 179.034 359.212 178.654C359.757 178.275 360.029 177.7 360.029 176.93C360.029 176.148 359.769 175.567 359.247 175.188C358.738 174.808 357.944 174.619 356.865 174.619H354.518V179.223ZM366.959 185.001V181.214L362.871 173.268H364.773L367.742 179.614H367.831L370.799 173.268H372.684L368.595 181.197V185.001H366.959ZM232.079 206.232C231.226 206.232 230.467 206.102 229.804 205.841C229.14 205.568 228.577 205.177 228.115 204.668C227.653 204.158 227.297 203.536 227.048 202.801C226.811 202.066 226.693 201.225 226.693 200.277C226.693 199.317 226.817 198.457 227.066 197.699C227.315 196.928 227.67 196.271 228.133 195.725C228.595 195.18 229.146 194.765 229.786 194.481C230.438 194.185 231.167 194.037 231.973 194.037C232.601 194.037 233.176 194.125 233.697 194.303C234.219 194.469 234.669 194.718 235.048 195.05C235.439 195.382 235.742 195.779 235.955 196.241C236.168 196.703 236.275 197.219 236.275 197.788L234.746 198.179C234.758 197.574 234.633 197.071 234.373 196.668C234.112 196.265 233.768 195.962 233.342 195.761C232.915 195.559 232.447 195.459 231.937 195.459C231.475 195.459 231.025 195.554 230.586 195.743C230.159 195.921 229.78 196.205 229.448 196.597C229.116 196.976 228.856 197.468 228.666 198.072C228.476 198.665 228.382 199.382 228.382 200.223C228.382 201.29 228.536 202.161 228.844 202.837C229.152 203.5 229.59 203.992 230.159 204.312C230.728 204.62 231.386 204.774 232.133 204.774C232.856 204.774 233.436 204.644 233.875 204.383C234.325 204.111 234.657 203.731 234.87 203.245C235.084 202.759 235.202 202.197 235.226 201.557L236.702 201.823C236.69 202.428 236.595 202.997 236.417 203.53C236.239 204.063 235.967 204.531 235.599 204.934C235.232 205.337 234.752 205.657 234.159 205.894C233.579 206.119 232.885 206.232 232.079 206.232ZM243.725 206.232C242.872 206.232 242.119 206.09 241.467 205.805C240.827 205.521 240.282 205.112 239.832 204.579C239.393 204.045 239.061 203.411 238.836 202.677C238.611 201.93 238.498 201.094 238.498 200.17C238.498 198.819 238.723 197.693 239.174 196.792C239.624 195.879 240.24 195.192 241.023 194.73C241.817 194.268 242.723 194.037 243.743 194.037C244.537 194.037 245.254 194.173 245.894 194.445C246.534 194.718 247.079 195.121 247.529 195.654C247.992 196.188 248.341 196.839 248.578 197.61C248.827 198.368 248.952 199.234 248.952 200.205C248.952 201.118 248.839 201.948 248.614 202.694C248.389 203.429 248.051 204.063 247.6 204.597C247.162 205.118 246.617 205.521 245.965 205.805C245.325 206.09 244.578 206.232 243.725 206.232ZM243.725 204.828C244.495 204.828 245.141 204.65 245.663 204.294C246.196 203.927 246.599 203.405 246.872 202.73C247.144 202.042 247.28 201.207 247.28 200.223C247.28 199.228 247.138 198.38 246.854 197.681C246.581 196.97 246.172 196.425 245.627 196.045C245.094 195.666 244.454 195.477 243.707 195.477C242.984 195.477 242.356 195.66 241.823 196.028C241.289 196.395 240.88 196.928 240.596 197.628C240.312 198.327 240.169 199.18 240.169 200.188C240.169 200.934 240.246 201.598 240.4 202.179C240.566 202.748 240.797 203.234 241.094 203.637C241.402 204.028 241.775 204.324 242.214 204.525C242.664 204.727 243.168 204.828 243.725 204.828ZM251.529 206.001V194.268H254.071L257.929 204.277H258.018L261.875 194.268H264.311V206.001H262.746L262.871 195.921H262.729L258.711 206.001H257.111L253.129 195.903H253.004L253.093 206.001H251.529ZM268.164 202.392V201.005H271.061C272.175 201.005 273.017 200.792 273.586 200.365C274.155 199.939 274.439 199.239 274.439 198.268C274.439 197.391 274.173 196.733 273.639 196.294C273.118 195.844 272.318 195.619 271.239 195.619H268.164V194.268H271.275C272.033 194.268 272.709 194.357 273.301 194.534C273.906 194.712 274.415 194.973 274.83 195.317C275.245 195.648 275.559 196.069 275.773 196.579C275.998 197.088 276.11 197.675 276.11 198.339C276.11 199.216 275.909 199.957 275.506 200.561C275.103 201.165 274.51 201.622 273.728 201.93C272.958 202.238 272.004 202.392 270.866 202.392H268.164ZM267.293 206.001V194.268H268.928V206.001H267.293ZM278.265 206.001V194.268H279.9V206.001H278.265ZM278.798 206.001V204.579H285.376V206.001H278.798ZM287.223 206.001V194.268H288.859V206.001H287.223ZM288.059 206.001V204.597H295.454V206.001H288.059ZM288.059 200.668V199.352H294.601V200.668H288.059ZM288.059 195.654V194.268H295.436V195.654H288.059ZM297.168 206.001L301.043 200.134L297.132 194.268H299.052L302.056 199.139H302.145L305.168 194.268H307.088L303.194 200.117L307.176 206.001H305.256L302.145 201.077H302.056L299.07 206.001H297.168ZM309.202 206.001V194.268H310.873V206.001H309.202ZM316.362 206.001V194.268H317.997V206.001H316.362ZM312.806 195.69V194.268H321.553V195.69H312.806ZM326.942 206.001V202.214L322.853 194.268H324.755L327.724 200.614H327.813L330.782 194.268H332.667L328.578 202.197V206.001H326.942ZM227.102 269.001V257.268H231.404C232.067 257.268 232.666 257.327 233.199 257.445C233.733 257.564 234.189 257.748 234.568 257.997C234.947 258.245 235.238 258.565 235.439 258.957C235.653 259.336 235.759 259.798 235.759 260.343C235.759 260.794 235.67 261.191 235.493 261.534C235.315 261.878 235.03 262.162 234.639 262.388C234.248 262.601 233.739 262.761 233.11 262.868V263.063C234.201 263.158 234.989 263.454 235.475 263.952C235.973 264.438 236.222 265.09 236.222 265.908C236.222 266.571 236.067 267.134 235.759 267.597C235.451 268.047 234.971 268.397 234.319 268.645C233.667 268.882 232.838 269.001 231.83 269.001H227.102ZM228.684 267.614H231.973C232.862 267.614 233.525 267.466 233.964 267.17C234.402 266.862 234.622 266.394 234.622 265.765C234.622 265.042 234.319 264.503 233.715 264.148C233.122 263.78 232.227 263.597 231.03 263.597H228.684V267.614ZM228.684 262.388H230.71C231.872 262.388 232.731 262.234 233.288 261.925C233.857 261.605 234.142 261.131 234.142 260.503C234.142 259.875 233.893 259.407 233.395 259.099C232.909 258.791 232.174 258.637 231.19 258.637H228.684V262.388ZM238.716 269.001V257.268H242.805C243.398 257.268 243.937 257.315 244.423 257.41C244.921 257.505 245.359 257.647 245.738 257.837C246.129 258.026 246.455 258.257 246.716 258.53C246.989 258.802 247.19 259.122 247.321 259.49C247.463 259.857 247.534 260.26 247.534 260.699C247.534 261.102 247.469 261.475 247.338 261.819C247.22 262.162 247.036 262.465 246.787 262.725C246.538 262.986 246.23 263.199 245.863 263.365C245.495 263.519 245.063 263.632 244.565 263.703V263.917C245.004 263.964 245.383 264.077 245.703 264.254C246.023 264.432 246.295 264.693 246.521 265.037C246.758 265.38 246.953 265.831 247.107 266.388L247.854 269.001H246.094L245.507 266.619C245.389 266.145 245.205 265.759 244.956 265.463C244.707 265.155 244.393 264.93 244.014 264.788C243.635 264.634 243.184 264.557 242.663 264.557H240.352V269.001H238.716ZM240.352 263.223H242.681C243.724 263.223 244.512 263.034 245.045 262.654C245.59 262.275 245.863 261.7 245.863 260.93C245.863 260.148 245.602 259.567 245.081 259.188C244.571 258.808 243.777 258.619 242.698 258.619H240.352V263.223ZM250.227 269.001V257.268H251.898V269.001H250.227ZM254.879 269.001V257.268H257.066L263.235 266.85H263.359L263.253 257.268H264.835V269.001H262.844L256.515 259.188H256.373L256.479 269.001H254.879ZM272.382 269.232C271.422 269.232 270.563 269.013 269.804 268.574C269.058 268.124 268.471 267.454 268.044 266.565C267.618 265.665 267.404 264.539 267.404 263.188C267.404 262.239 267.523 261.386 267.76 260.628C267.997 259.869 268.341 259.223 268.791 258.69C269.253 258.157 269.816 257.748 270.48 257.463C271.144 257.179 271.914 257.037 272.791 257.037C273.431 257.037 274.012 257.119 274.533 257.285C275.067 257.451 275.529 257.688 275.92 257.997C276.323 258.305 276.643 258.684 276.88 259.134C277.117 259.585 277.265 260.1 277.324 260.681L275.76 261.125C275.713 260.474 275.541 259.958 275.244 259.579C274.96 259.188 274.599 258.903 274.16 258.725C273.722 258.548 273.247 258.459 272.738 258.459C272.027 258.459 271.399 258.619 270.853 258.939C270.308 259.259 269.882 259.768 269.573 260.468C269.265 261.155 269.111 262.05 269.111 263.152C269.111 264.017 269.206 264.746 269.396 265.339C269.585 265.931 269.84 266.411 270.16 266.779C270.48 267.134 270.853 267.395 271.28 267.561C271.719 267.715 272.181 267.792 272.667 267.792C273.295 267.792 273.834 267.674 274.284 267.437C274.735 267.199 275.096 266.844 275.369 266.37C275.653 265.884 275.825 265.274 275.884 264.539H273.236V263.241H277.502V265.001L277.52 269.001H276.169L276.507 265.801H276.258C276.092 266.559 275.849 267.194 275.529 267.703C275.209 268.213 274.788 268.598 274.267 268.859C273.745 269.108 273.117 269.232 272.382 269.232ZM287.48 269.001V265.214L283.391 257.268H285.294L288.263 263.614H288.351L291.32 257.268H293.205L289.116 265.197V269.001H287.48ZM299.211 269.232C298.358 269.232 297.605 269.09 296.953 268.805C296.313 268.521 295.768 268.112 295.318 267.579C294.879 267.045 294.547 266.411 294.322 265.677C294.097 264.93 293.984 264.094 293.984 263.17C293.984 261.819 294.21 260.693 294.66 259.792C295.11 258.879 295.727 258.192 296.509 257.73C297.303 257.268 298.21 257.037 299.229 257.037C300.023 257.037 300.74 257.173 301.38 257.445C302.02 257.718 302.565 258.121 303.015 258.654C303.478 259.188 303.827 259.839 304.064 260.61C304.313 261.368 304.438 262.234 304.438 263.205C304.438 264.118 304.325 264.948 304.1 265.694C303.875 266.429 303.537 267.063 303.087 267.597C302.648 268.118 302.103 268.521 301.451 268.805C300.811 269.09 300.064 269.232 299.211 269.232ZM299.211 267.828C299.981 267.828 300.627 267.65 301.149 267.294C301.682 266.927 302.085 266.405 302.358 265.73C302.63 265.042 302.767 264.207 302.767 263.223C302.767 262.228 302.624 261.38 302.34 260.681C302.067 259.97 301.658 259.425 301.113 259.045C300.58 258.666 299.94 258.477 299.193 258.477C298.47 258.477 297.842 258.66 297.309 259.028C296.775 259.395 296.367 259.928 296.082 260.628C295.798 261.327 295.655 262.18 295.655 263.188C295.655 263.934 295.732 264.598 295.887 265.179C296.052 265.748 296.284 266.234 296.58 266.637C296.888 267.028 297.261 267.324 297.7 267.525C298.15 267.727 298.654 267.828 299.211 267.828ZM311.833 269.232C311.193 269.232 310.612 269.161 310.09 269.019C309.569 268.888 309.113 268.693 308.721 268.432C308.33 268.159 308.004 267.834 307.744 267.454C307.483 267.075 307.281 266.642 307.139 266.157C307.009 265.671 306.944 265.131 306.944 264.539V257.268H308.579V264.468C308.579 265.179 308.698 265.777 308.935 266.263C309.184 266.749 309.551 267.117 310.037 267.365C310.523 267.614 311.121 267.739 311.833 267.739C312.555 267.739 313.154 267.62 313.628 267.383C314.114 267.134 314.475 266.767 314.713 266.281C314.961 265.783 315.086 265.179 315.086 264.468V257.268H316.721V264.539C316.721 266.032 316.301 267.188 315.459 268.005C314.63 268.823 313.421 269.232 311.833 269.232ZM319.619 269.001V257.268H323.708C324.3 257.268 324.84 257.315 325.326 257.41C325.823 257.505 326.262 257.647 326.641 257.837C327.032 258.026 327.358 258.257 327.619 258.53C327.892 258.802 328.093 259.122 328.223 259.49C328.366 259.857 328.437 260.26 328.437 260.699C328.437 261.102 328.372 261.475 328.241 261.819C328.123 262.162 327.939 262.465 327.69 262.725C327.441 262.986 327.133 263.199 326.766 263.365C326.398 263.519 325.966 263.632 325.468 263.703V263.917C325.906 263.964 326.286 264.077 326.606 264.254C326.926 264.432 327.198 264.693 327.423 265.037C327.66 265.38 327.856 265.831 328.01 266.388L328.757 269.001H326.997L326.41 266.619C326.292 266.145 326.108 265.759 325.859 265.463C325.61 265.155 325.296 264.93 324.917 264.788C324.537 264.634 324.087 264.557 323.566 264.557H321.254V269.001H319.619ZM321.254 263.223H323.583C324.626 263.223 325.414 263.034 325.948 262.654C326.493 262.275 326.766 261.7 326.766 260.93C326.766 260.148 326.505 259.567 325.983 259.188C325.474 258.808 324.68 258.619 323.601 258.619H321.254V263.223ZM227.102 290.001V278.268H228.737V290.001H227.102ZM227.937 290.001V288.597H235.333V290.001H227.937ZM227.937 284.668V283.352H234.479V284.668H227.937ZM227.937 279.654V278.268H235.315V279.654H227.937ZM237.046 290.001L240.922 284.134L237.01 278.268H238.93L241.935 283.139H242.024L245.046 278.268H246.966L243.073 284.117L247.055 290.001H245.135L242.024 285.077H241.935L238.948 290.001H237.046ZM249.081 290.001V278.268H250.752V290.001H249.081ZM257.84 290.232C257.07 290.232 256.388 290.149 255.796 289.983C255.215 289.817 254.723 289.574 254.32 289.254C253.929 288.922 253.639 288.519 253.449 288.045C253.259 287.571 253.176 287.02 253.2 286.392L254.676 286.054C254.628 286.694 254.729 287.222 254.978 287.637C255.227 288.039 255.606 288.348 256.116 288.561C256.625 288.762 257.224 288.863 257.911 288.863C258.575 288.863 259.132 288.78 259.582 288.614C260.045 288.448 260.388 288.217 260.613 287.921C260.851 287.625 260.969 287.287 260.969 286.908C260.969 286.481 260.833 286.143 260.56 285.894C260.288 285.645 259.92 285.45 259.458 285.308C259.008 285.165 258.504 285.035 257.947 284.917C257.402 284.798 256.856 284.668 256.311 284.525C255.778 284.371 255.292 284.17 254.853 283.921C254.415 283.672 254.065 283.352 253.805 282.961C253.544 282.558 253.413 282.054 253.413 281.45C253.413 280.751 253.585 280.146 253.929 279.637C254.285 279.127 254.782 278.736 255.422 278.463C256.062 278.179 256.809 278.037 257.662 278.037C258.528 278.037 259.292 278.173 259.956 278.445C260.619 278.718 261.147 279.121 261.538 279.654C261.929 280.176 262.131 280.828 262.142 281.61L260.613 281.965C260.625 281.539 260.56 281.165 260.418 280.845C260.276 280.525 260.068 280.259 259.796 280.045C259.535 279.832 259.221 279.672 258.853 279.565C258.498 279.447 258.095 279.388 257.645 279.388C257.111 279.388 256.643 279.471 256.24 279.637C255.849 279.802 255.541 280.028 255.316 280.312C255.091 280.597 254.978 280.934 254.978 281.325C254.978 281.788 255.138 282.155 255.458 282.428C255.778 282.688 256.199 282.896 256.72 283.05C257.242 283.204 257.799 283.346 258.391 283.477C258.901 283.583 259.399 283.714 259.885 283.868C260.382 284.01 260.833 284.205 261.236 284.454C261.639 284.691 261.959 285.005 262.196 285.397C262.433 285.788 262.551 286.285 262.551 286.89C262.551 287.565 262.373 288.152 262.018 288.65C261.674 289.148 261.153 289.539 260.453 289.823C259.754 290.096 258.883 290.232 257.84 290.232ZM267.23 290.001V278.268H268.865V290.001H267.23ZM263.674 279.69V278.268H272.421V279.69H263.674ZM274.358 290.001V278.268H276.03V290.001H274.358ZM279.011 290.001V278.268H281.198L287.367 287.85H287.491L287.385 278.268H288.967V290.001H286.976L280.647 280.188H280.505L280.611 290.001H279.011ZM296.514 290.232C295.554 290.232 294.695 290.013 293.936 289.574C293.19 289.124 292.603 288.454 292.176 287.565C291.75 286.665 291.536 285.539 291.536 284.188C291.536 283.239 291.655 282.386 291.892 281.628C292.129 280.869 292.473 280.223 292.923 279.69C293.385 279.157 293.948 278.748 294.612 278.463C295.276 278.179 296.046 278.037 296.923 278.037C297.563 278.037 298.144 278.119 298.665 278.285C299.199 278.451 299.661 278.688 300.052 278.997C300.455 279.305 300.775 279.684 301.012 280.134C301.249 280.585 301.397 281.1 301.456 281.681L299.892 282.125C299.845 281.474 299.673 280.958 299.376 280.579C299.092 280.188 298.73 279.903 298.292 279.725C297.853 279.548 297.379 279.459 296.87 279.459C296.159 279.459 295.53 279.619 294.985 279.939C294.44 280.259 294.013 280.768 293.705 281.468C293.397 282.155 293.243 283.05 293.243 284.152C293.243 285.017 293.338 285.746 293.528 286.339C293.717 286.931 293.972 287.411 294.292 287.779C294.612 288.134 294.985 288.395 295.412 288.561C295.85 288.715 296.313 288.792 296.799 288.792C297.427 288.792 297.966 288.674 298.416 288.437C298.867 288.199 299.228 287.844 299.501 287.37C299.785 286.884 299.957 286.274 300.016 285.539H297.368V284.241H301.634V286.001L301.652 290.001H300.301L300.639 286.801H300.39C300.224 287.559 299.981 288.194 299.661 288.703C299.341 289.213 298.92 289.598 298.399 289.859C297.877 290.108 297.249 290.232 296.514 290.232ZM309.657 290.001V288.597H313.123C313.929 288.597 314.587 288.413 315.097 288.045C315.618 287.666 316.009 287.145 316.27 286.481C316.531 285.817 316.661 285.047 316.661 284.17C316.661 283.399 316.578 282.736 316.412 282.179C316.258 281.61 316.015 281.142 315.683 280.774C315.352 280.407 314.931 280.134 314.421 279.957C313.923 279.767 313.331 279.672 312.643 279.672H309.657V278.268H312.608C313.923 278.268 315.002 278.499 315.843 278.961C316.697 279.423 317.325 280.087 317.728 280.952C318.131 281.817 318.332 282.848 318.332 284.045C318.332 284.851 318.243 285.574 318.066 286.214C317.9 286.842 317.657 287.399 317.337 287.885C317.029 288.359 316.655 288.757 316.217 289.077C315.79 289.385 315.316 289.616 314.794 289.77C314.285 289.924 313.74 290.001 313.159 290.001H309.657ZM308.786 290.001V278.268H310.421V290.001H308.786ZM319.422 290.001L323.547 278.268H325.911L330.036 290.001H328.293L324.845 279.637H324.631L321.182 290.001H319.422ZM321.378 287.37V286.125H328.293V287.37H321.378ZM333.341 290.001V278.268H334.976V290.001H333.341ZM329.785 279.69V278.268H338.532V279.69H329.785ZM338.277 290.001L342.401 278.268H344.765L348.89 290.001H347.148L343.699 279.637H343.485L340.037 290.001H338.277ZM340.232 287.37V286.125H347.148V287.37H340.232Z" fill="white"/>
<path d="M76.4778 23.001H198.478" stroke="#88F3B4" stroke-width="2"/>
<path d="M76.4778 106.001H198.478" stroke="#88F3B4" stroke-width="2"/>
<path d="M76.4778 189.001H198.478" stroke="#88F3B4" stroke-width="2"/>
<path d="M76.4778 272.001H198.478" stroke="#88F3B4" stroke-width="2"/>
<path d="M49.2599 16.5506C49.2599 25.1567 42.4174 32.1012 34.0158 32.1012C25.6143 32.1012 18.7717 25.1567 18.7717 16.5506C18.7717 7.94453 25.6143 1 34.0158 1C42.4174 1 49.2599 7.94453 49.2599 16.5506Z" stroke="#F8F8F8" stroke-width="2"/>
<circle cx="18.6933" cy="29.1176" r="15.2441" stroke="#F8F8F8" stroke-width="2"/>
<path d="M18.4009 20.3728L25.5193 14.6997M21.6774 26.4694L30.7199 18.8195M26.8099 31.0851L34.0407 24.7648" stroke="#F8F8F8" stroke-width="2"/>
<path d="M47.4301 106.454C47.4301 117.738 38.1486 126.909 26.6692 126.909C15.1898 126.909 5.9082 117.738 5.9082 106.454C5.9082 95.1711 15.1898 86 26.6692 86C38.1486 86 47.4301 95.1711 47.4301 106.454Z" stroke="#F8F8F8" stroke-width="2"/>
<path d="M47.4275 106.454C47.4275 115.06 40.5849 122.005 32.1834 122.005C23.7818 122.005 16.9393 115.06 16.9393 106.454C16.9393 97.8479 23.7818 90.9033 32.1834 90.9033C40.5849 90.9033 47.4275 97.8479 47.4275 106.454Z" stroke="#F8F8F8" stroke-width="2"/>
<path d="M47.4302 106.148C47.4302 111.81 42.5766 116.488 36.477 116.488C30.3775 116.488 25.5238 111.81 25.5238 106.148C25.5238 100.486 30.3775 95.8076 36.477 95.8076C42.5766 95.8076 47.4302 100.486 47.4302 106.148Z" stroke="#F8F8F8" stroke-width="2"/>
<path d="M36.8322 189.213C36.8322 195.786 35.5823 201.688 33.6052 205.91C31.5906 210.211 29.0061 212.426 26.492 212.426C23.9779 212.426 21.3935 210.211 19.3789 205.91C17.4017 201.688 16.1518 195.786 16.1518 189.213C16.1518 182.64 17.4017 176.737 19.3789 172.516C21.3935 168.214 23.9779 166 26.492 166C29.0061 166 31.5906 168.214 33.6052 172.516C35.5823 176.737 36.8322 182.64 36.8322 189.213Z" stroke="#F8F8F8" stroke-width="2"/>
<path d="M31.932 179.801C37.5305 183.027 41.908 187.048 44.4769 190.898C47.0847 194.806 47.6588 198.244 46.326 200.557C44.9932 202.869 41.7311 204.096 37.0421 203.799C32.4231 203.507 26.7491 201.736 21.1505 198.51C15.552 195.283 11.1745 191.262 8.60557 187.412C5.99778 183.504 5.42367 180.066 6.75647 177.754C8.08927 175.441 11.3514 174.214 16.0404 174.511C20.6594 174.803 26.3334 176.574 31.932 179.801Z" stroke="#F8F8F8" stroke-width="2"/>
<path d="M32.0183 198.458C26.4501 201.736 20.7928 203.56 16.1767 203.895C11.4908 204.236 8.2173 203.04 6.863 200.739C5.5087 198.439 6.05075 194.996 8.62199 191.064C11.1549 187.19 15.4947 183.128 21.0629 179.85C26.6312 176.572 32.2885 174.748 36.9046 174.412C41.5905 174.072 44.864 175.268 46.2183 177.568C47.5726 179.869 47.0305 183.311 44.4593 187.244C41.9264 191.117 37.5866 195.179 32.0183 198.458Z" stroke="#F8F8F8" stroke-width="2"/>
<path d="M42.7039 280.818C40.6767 284.149 37.6002 286.72 33.9527 288.132C30.3052 289.544 26.291 289.718 22.5341 288.626C18.7772 287.534 15.4882 285.238 13.1782 282.095C10.8683 278.951 9.66682 275.137 9.76066 271.244C9.8545 267.351 11.2384 263.598 13.6971 260.568C16.1559 257.539 19.5518 255.402 23.357 254.491C27.1621 253.579 31.1634 253.944 34.7387 255.528C38.314 257.113 41.263 259.828 43.1274 263.252" stroke="#F8F8F8" stroke-width="2" stroke-linecap="round"/>
<path d="M54.9041 271.692C54.9041 271.692 35.8877 271.692 22.1866 271.692M22.1866 271.692C22.1866 268.073 24.7643 263.162 30.5208 263.162M22.1866 271.692C22.1866 276.069 25.2132 280.175 30.5208 280.175" stroke="#F8F8F8" stroke-width="2" stroke-linecap="round" stroke-linejoin="round"/>
</svg>
